# https://github.com/mikedh/trimesh
v -0.08000000 -0.06750000 0.00000000 0.86274510 0.87843137 0.79215686
v 0.08000000 -0.06750000 0.00000000 0.86274510 0.87843137 0.79215686
v -0.09500000 -0.08250000 0.19000000 0.86274510 0.87843137 0.79215686
v 0.09500000 -0.08250000 0.19000000 0.86274510 0.87843137 0.79215686
v -0.07600000 -0.06350000 0.00000000 0.86274510 0.87843137 0.79215686
v 0.07600000 -0.06350000 0.00000000 0.86274510 0.87843137 0.79215686
v -0.09100000 -0.07850000 0.19000000 0.86274510 0.87843137 0.79215686
v 0.09100000 -0.07850000 0.19000000 0.86274510 0.87843137 0.79215686
f 1 2 4
f 1 4 3
f 5 8 6
f 5 7 8
f 3 4 8
f 3 8 7
f 1 5 6
f 1 6 2
f 1 3 7
f 1 7 5
f 2 6 8
f 2 8 4

