#usda 1.0
(
    defaultPrim = "MagSafeAccessory"
    metersPerUnit = 1
    upAxis = "Z"
)

def Xform "MagSafeAccessory" (
    customData = {
        dictionary magsafe = {
            int asset_version = 1
            string class = "magsafe_accessory"
            bool dynamic_candidate = 1
            string product_name = "Daiso MagSafe2-compatible stand pop finger, black"
            string product_number = "1062886"
        }
    }
)
{
    def "Materials"
    {
        def Material "BlackMetal"
        {
            token outputs:surface.connect = </MagSafeAccessory/Materials/BlackMetal/PreviewSurface.outputs:surface>

            def Shader "PreviewSurface"
            {
                uniform token info:id = "UsdPreviewSurface"
                color3f inputs:diffuseColor = (0.012, 0.013, 0.015)
                color3f inputs:emissiveColor = (0, 0, 0)
                float inputs:metallic = 0.58
                float inputs:opacity = 1
                float inputs:roughness = 0.34
                token outputs:surface
            }
        }

        def Material "Hinge"
        {
            token outputs:surface.connect = </MagSafeAccessory/Materials/Hinge/PreviewSurface.outputs:surface>

            def Shader "PreviewSurface"
            {
                uniform token info:id = "UsdPreviewSurface"
                color3f inputs:diffuseColor = (0.035, 0.037, 0.041)
                color3f inputs:emissiveColor = (0, 0, 0)
                float inputs:metallic = 0.7
                float inputs:opacity = 1
                float inputs:roughness = 0.24
                token outputs:surface
            }
        }
    }

    def "Visuals"
    {
        def Mesh "MainCRing" (
            prepend apiSchemas = ["MaterialBindingAPI"]
            customData = {
                dictionary magsafe = {
                    string class = "accessory_main_ring_visual"
                }
            }
        )
        {
            uniform bool doubleSided = 0
            float3[] extent = [(-0.0275, -0.00175, -0.0275), (0.0275, 0.00175, 0.0275)]
            int[] faceVertexCounts = [4, 4, 4, 4, 4, 4, 4, 4, 4, 4, 4, 4, 4, 4, 4, 4, 4, 4, 4, 4, 4, 4, 4, 4, 4, 4, 4, 4, 4, 4, 4, 4, 4, 4, 4, 4, 4, 4, 4, 4, 4, 4, 4, 4, 4, 4, 4, 4, 4, 4, 4, 4, 4, 4, 4, 4, 4, 4, 4, 4, 4, 4, 4, 4, 4, 4, 4, 4, 4, 4, 4, 4, 4, 4, 4, 4, 4, 4, 4, 4, 4, 4, 4, 4, 4, 4, 4, 4, 4, 4, 4, 4, 4, 4, 4, 4, 4, 4, 4, 4, 4, 4, 4, 4, 4, 4, 4, 4, 4, 4, 4, 4, 4, 4, 4, 4, 4, 4, 4, 4, 4, 4, 4, 4, 4, 4, 4, 4, 4, 4, 4, 4, 4, 4, 4, 4, 4, 4, 4, 4, 4, 4, 4, 4, 4, 4, 4, 4, 4, 4, 4, 4, 4, 4, 4, 4, 4, 4, 4, 4, 4, 4, 4, 4, 4, 4, 4, 4, 4, 4, 4, 4, 4, 4, 4, 4, 4, 4, 4, 4, 4, 4, 4, 4, 4, 4, 4, 4, 4, 4, 4, 4, 4, 4, 4, 4, 4, 4, 4, 4, 4, 4, 4, 4, 4, 4, 4, 4, 4, 4, 4, 4, 4, 4, 4, 4, 4, 4, 4, 4, 4, 4, 4, 4, 4, 4, 4, 4, 4, 4, 4, 4, 4, 4, 4, 4, 4, 4, 4, 4, 4, 4, 4, 4, 4, 4, 4, 4, 4, 4, 4, 4, 4, 4, 4, 4, 4, 4, 4, 4, 4, 4, 4, 4, 4, 4, 4, 4, 4, 4, 4, 4, 4, 4, 4, 4, 4, 4, 4, 4, 4, 4, 4, 4, 4, 4, 4, 4, 4, 4]
            int[] faceVertexIndices = [1, 0, 73, 74, 146, 147, 220, 219, 0, 1, 147, 146, 74, 73, 219, 220, 2, 1, 74, 75, 147, 148, 221, 220, 1, 2, 148, 147, 75, 74, 220, 221, 3, 2, 75, 76, 148, 149, 222, 221, 2, 3, 149, 148, 76, 75, 221, 222, 4, 3, 76, 77, 149, 150, 223, 222, 3, 4, 150, 149, 77, 76, 222, 223, 5, 4, 77, 78, 150, 151, 224, 223, 4, 5, 151, 150, 78, 77, 223, 224, 6, 5, 78, 79, 151, 152, 225, 224, 5, 6, 152, 151, 79, 78, 224, 225, 7, 6, 79, 80, 152, 153, 226, 225, 6, 7, 153, 152, 80, 79, 225, 226, 8, 7, 80, 81, 153, 154, 227, 226, 7, 8, 154, 153, 81, 80, 226, 227, 9, 8, 81, 82, 154, 155, 228, 227, 8, 9, 155, 154, 82, 81, 227, 228, 10, 9, 82, 83, 155, 156, 229, 228, 9, 10, 156, 155, 83, 82, 228, 229, 11, 10, 83, 84, 156, 157, 230, 229, 10, 11, 157, 156, 84, 83, 229, 230, 12, 11, 84, 85, 157, 158, 231, 230, 11, 12, 158, 157, 85, 84, 230, 231, 13, 12, 85, 86, 158, 159, 232, 231, 12, 13, 159, 158, 86, 85, 231, 232, 14, 13, 86, 87, 159, 160, 233, 232, 13, 14, 160, 159, 87, 86, 232, 233, 15, 14, 87, 88, 160, 161, 234, 233, 14, 15, 161, 160, 88, 87, 233, 234, 16, 15, 88, 89, 161, 162, 235, 234, 15, 16, 162, 161, 89, 88, 234, 235, 17, 16, 89, 90, 162, 163, 236, 235, 16, 17, 163, 162, 90, 89, 235, 236, 18, 17, 90, 91, 163, 164, 237, 236, 17, 18, 164, 163, 91, 90, 236, 237, 19, 18, 91, 92, 164, 165, 238, 237, 18, 19, 165, 164, 92, 91, 237, 238, 20, 19, 92, 93, 165, 166, 239, 238, 19, 20, 166, 165, 93, 92, 238, 239, 21, 20, 93, 94, 166, 167, 240, 239, 20, 21, 167, 166, 94, 93, 239, 240, 22, 21, 94, 95, 167, 168, 241, 240, 21, 22, 168, 167, 95, 94, 240, 241, 23, 22, 95, 96, 168, 169, 242, 241, 22, 23, 169, 168, 96, 95, 241, 242, 24, 23, 96, 97, 169, 170, 243, 242, 23, 24, 170, 169, 97, 96, 242, 243, 25, 24, 97, 98, 170, 171, 244, 243, 24, 25, 171, 170, 98, 97, 243, 244, 26, 25, 98, 99, 171, 172, 245, 244, 25, 26, 172, 171, 99, 98, 244, 245, 27, 26, 99, 100, 172, 173, 246, 245, 26, 27, 173, 172, 100, 99, 245, 246, 28, 27, 100, 101, 173, 174, 247, 246, 27, 28, 174, 173, 101, 100, 246, 247, 29, 28, 101, 102, 174, 175, 248, 247, 28, 29, 175, 174, 102, 101, 247, 248, 30, 29, 102, 103, 175, 176, 249, 248, 29, 30, 176, 175, 103, 102, 248, 249, 31, 30, 103, 104, 176, 177, 250, 249, 30, 31, 177, 176, 104, 103, 249, 250, 32, 31, 104, 105, 177, 178, 251, 250, 31, 32, 178, 177, 105, 104, 250, 251, 33, 32, 105, 106, 178, 179, 252, 251, 32, 33, 179, 178, 106, 105, 251, 252, 34, 33, 106, 107, 179, 180, 253, 252, 33, 34, 180, 179, 107, 106, 252, 253, 35, 34, 107, 108, 180, 181, 254, 253, 34, 35, 181, 180, 108, 107, 253, 254, 36, 35, 108, 109, 181, 182, 255, 254, 35, 36, 182, 181, 109, 108, 254, 255, 37, 36, 109, 110, 182, 183, 256, 255, 36, 37, 183, 182, 110, 109, 255, 256, 38, 37, 110, 111, 183, 184, 257, 256, 37, 38, 184, 183, 111, 110, 256, 257, 39, 38, 111, 112, 184, 185, 258, 257, 38, 39, 185, 184, 112, 111, 257, 258, 40, 39, 112, 113, 185, 186, 259, 258, 39, 40, 186, 185, 113, 112, 258, 259, 41, 40, 113, 114, 186, 187, 260, 259, 40, 41, 187, 186, 114, 113, 259, 260, 42, 41, 114, 115, 187, 188, 261, 260, 41, 42, 188, 187, 115, 114, 260, 261, 43, 42, 115, 116, 188, 189, 262, 261, 42, 43, 189, 188, 116, 115, 261, 262, 44, 43, 116, 117, 189, 190, 263, 262, 43, 44, 190, 189, 117, 116, 262, 263, 45, 44, 117, 118, 190, 191, 264, 263, 44, 45, 191, 190, 118, 117, 263, 264, 46, 45, 118, 119, 191, 192, 265, 264, 45, 46, 192, 191, 119, 118, 264, 265, 47, 46, 119, 120, 192, 193, 266, 265, 46, 47, 193, 192, 120, 119, 265, 266, 48, 47, 120, 121, 193, 194, 267, 266, 47, 48, 194, 193, 121, 120, 266, 267, 49, 48, 121, 122, 194, 195, 268, 267, 48, 49, 195, 194, 122, 121, 267, 268, 50, 49, 122, 123, 195, 196, 269, 268, 49, 50, 196, 195, 123, 122, 268, 269, 51, 50, 123, 124, 196, 197, 270, 269, 50, 51, 197, 196, 124, 123, 269, 270, 52, 51, 124, 125, 197, 198, 271, 270, 51, 52, 198, 197, 125, 124, 270, 271, 53, 52, 125, 126, 198, 199, 272, 271, 52, 53, 199, 198, 126, 125, 271, 272, 54, 53, 126, 127, 199, 200, 273, 272, 53, 54, 200, 199, 127, 126, 272, 273, 55, 54, 127, 128, 200, 201, 274, 273, 54, 55, 201, 200, 128, 127, 273, 274, 56, 55, 128, 129, 201, 202, 275, 274, 55, 56, 202, 201, 129, 128, 274, 275, 57, 56, 129, 130, 202, 203, 276, 275, 56, 57, 203, 202, 130, 129, 275, 276, 58, 57, 130, 131, 203, 204, 277, 276, 57, 58, 204, 203, 131, 130, 276, 277, 59, 58, 131, 132, 204, 205, 278, 277, 58, 59, 205, 204, 132, 131, 277, 278, 60, 59, 132, 133, 205, 206, 279, 278, 59, 60, 206, 205, 133, 132, 278, 279, 61, 60, 133, 134, 206, 207, 280, 279, 60, 61, 207, 206, 134, 133, 279, 280, 62, 61, 134, 135, 207, 208, 281, 280, 61, 62, 208, 207, 135, 134, 280, 281, 63, 62, 135, 136, 208, 209, 282, 281, 62, 63, 209, 208, 136, 135, 281, 282, 64, 63, 136, 137, 209, 210, 283, 282, 63, 64, 210, 209, 137, 136, 282, 283, 65, 64, 137, 138, 210, 211, 284, 283, 64, 65, 211, 210, 138, 137, 283, 284, 66, 65, 138, 139, 211, 212, 285, 284, 65, 66, 212, 211, 139, 138, 284, 285, 67, 66, 139, 140, 212, 213, 286, 285, 66, 67, 213, 212, 140, 139, 285, 286, 68, 67, 140, 141, 213, 214, 287, 286, 67, 68, 214, 213, 141, 140, 286, 287, 69, 68, 141, 142, 214, 215, 288, 287, 68, 69, 215, 214, 142, 141, 287, 288, 70, 69, 142, 143, 215, 216, 289, 288, 69, 70, 216, 215, 143, 142, 288, 289, 71, 70, 143, 144, 216, 217, 290, 289, 70, 71, 217, 216, 144, 143, 289, 290, 72, 71, 144, 145, 217, 218, 291, 290, 71, 72, 218, 217, 145, 144, 290, 291, 0, 146, 219, 73, 72, 145, 291, 218]
            rel material:binding = </MagSafeAccessory/Materials/BlackMetal>
            point3f[] points = [(0.008497967, -0.00175, -0.026154054), (0.010523794, -0.00175, -0.025406687), (0.012484739, -0.00175, -0.02450268), (0.01436871, -0.00175, -0.023447605), (0.016164094, -0.00175, -0.022247968), (0.017859822, -0.00175, -0.020911165), (0.019445436, -0.00175, -0.019445436), (0.020911165, -0.00175, -0.017859822), (0.022247968, -0.00175, -0.016164094), (0.023447605, -0.00175, -0.01436871), (0.02450268, -0.00175, -0.012484739), (0.025406687, -0.00175, -0.010523794), (0.026154054, -0.00175, -0.008497967), (0.026740173, -0.00175, -0.0064197476), (0.027161429, -0.00175, -0.004301948), (0.027415227, -0.00175, -0.002157625), (0.0275, -0.00175, 0), (0.027415227, -0.00175, 0.002157625), (0.027161429, -0.00175, 0.004301948), (0.026740173, -0.00175, 0.0064197476), (0.026154054, -0.00175, 0.008497967), (0.025406687, -0.00175, 0.010523794), (0.02450268, -0.00175, 0.012484739), (0.023447605, -0.00175, 0.01436871), (0.022247968, -0.00175, 0.016164094), (0.020911165, -0.00175, 0.017859822), (0.019445436, -0.00175, 0.019445436), (0.017859822, -0.00175, 0.020911165), (0.016164094, -0.00175, 0.022247968), (0.01436871, -0.00175, 0.023447605), (0.012484739, -0.00175, 0.02450268), (0.010523794, -0.00175, 0.025406687), (0.008497967, -0.00175, 0.026154054), (0.0064197476, -0.00175, 0.026740173), (0.004301948, -0.00175, 0.027161429), (0.002157625, -0.00175, 0.027415227), (1.6838893e-18, -0.00175, 0.0275), (-0.002157625, -0.00175, 0.027415227), (-0.004301948, -0.00175, 0.027161429), (-0.0064197476, -0.00175, 0.026740173), (-0.008497967, -0.00175, 0.026154054), (-0.010523794, -0.00175, 0.025406687), (-0.012484739, -0.00175, 0.02450268), (-0.01436871, -0.00175, 0.023447605), (-0.016164094, -0.00175, 0.022247968), (-0.017859822, -0.00175, 0.020911165), (-0.019445436, -0.00175, 0.019445436), (-0.020911165, -0.00175, 0.017859822), (-0.022247968, -0.00175, 0.016164094), (-0.023447605, -0.00175, 0.01436871), (-0.02450268, -0.00175, 0.012484739), (-0.025406687, -0.00175, 0.010523794), (-0.026154054, -0.00175, 0.008497967), (-0.026740173, -0.00175, 0.0064197476), (-0.027161429, -0.00175, 0.004301948), (-0.027415227, -0.00175, 0.002157625), (-0.0275, -0.00175, 3.3677786e-18), (-0.027415227, -0.00175, -0.002157625), (-0.027161429, -0.00175, -0.004301948), (-0.026740173, -0.00175, -0.0064197476), (-0.026154054, -0.00175, -0.008497967), (-0.025406687, -0.00175, -0.010523794), (-0.02450268, -0.00175, -0.012484739), (-0.023447605, -0.00175, -0.01436871), (-0.022247968, -0.00175, -0.016164094), (-0.020911165, -0.00175, -0.017859822), (-0.019445436, -0.00175, -0.019445436), (-0.017859822, -0.00175, -0.020911165), (-0.016164094, -0.00175, -0.022247968), (-0.01436871, -0.00175, -0.023447605), (-0.012484739, -0.00175, -0.02450268), (-0.010523794, -0.00175, -0.025406687), (-0.008497967, -0.00175, -0.026154054), (0.0069528823, -0.00175, -0.021398772), (0.008610377, -0.00175, -0.02078729), (0.010214786, -0.00175, -0.020047646), (0.011756218, -0.00175, -0.019184403), (0.013225168, -0.00175, -0.018202882), (0.014612581, -0.00175, -0.017109133), (0.015909903, -0.00175, -0.015909903), (0.017109133, -0.00175, -0.014612581), (0.018202882, -0.00175, -0.013225168), (0.019184403, -0.00175, -0.011756218), (0.020047646, -0.00175, -0.010214786), (0.02078729, -0.00175, -0.008610377), (0.021398772, -0.00175, -0.0069528823), (0.021878323, -0.00175, -0.0052525206), (0.022222988, -0.00175, -0.0035197756), (0.02243064, -0.00175, -0.0017653296), (0.0225, -0.00175, 0), (0.02243064, -0.00175, 0.0017653296), (0.022222988, -0.00175, 0.0035197756), (0.021878323, -0.00175, 0.0052525206), (0.021398772, -0.00175, 0.0069528823), (0.02078729, -0.00175, 0.008610377), (0.020047646, -0.00175, 0.010214786), (0.019184403, -0.00175, 0.011756218), (0.018202882, -0.00175, 0.013225168), (0.017109133, -0.00175, 0.014612581), (0.015909903, -0.00175, 0.015909903), (0.014612581, -0.00175, 0.017109133), (0.013225168, -0.00175, 0.018202882), (0.011756218, -0.00175, 0.019184403), (0.010214786, -0.00175, 0.020047646), (0.008610377, -0.00175, 0.02078729), (0.0069528823, -0.00175, 0.021398772), (0.0052525206, -0.00175, 0.021878323), (0.0035197756, -0.00175, 0.022222988), (0.0017653296, -0.00175, 0.02243064), (1.3777276e-18, -0.00175, 0.0225), (-0.0017653296, -0.00175, 0.02243064), (-0.0035197756, -0.00175, 0.022222988), (-0.0052525206, -0.00175, 0.021878323), (-0.0069528823, -0.00175, 0.021398772), (-0.008610377, -0.00175, 0.02078729), (-0.010214786, -0.00175, 0.020047646), (-0.011756218, -0.00175, 0.019184403), (-0.013225168, -0.00175, 0.018202882), (-0.014612581, -0.00175, 0.017109133), (-0.015909903, -0.00175, 0.015909903), (-0.017109133, -0.00175, 0.014612581), (-0.018202882, -0.00175, 0.013225168), (-0.019184403, -0.00175, 0.011756218), (-0.020047646, -0.00175, 0.010214786), (-0.02078729, -0.00175, 0.008610377), (-0.021398772, -0.00175, 0.0069528823), (-0.021878323, -0.00175, 0.0052525206), (-0.022222988, -0.00175, 0.0035197756), (-0.02243064, -0.00175, 0.0017653296), (-0.0225, -0.00175, 2.7554553e-18), (-0.02243064, -0.00175, -0.0017653296), (-0.022222988, -0.00175, -0.0035197756), (-0.021878323, -0.00175, -0.0052525206), (-0.021398772, -0.00175, -0.0069528823), (-0.02078729, -0.00175, -0.008610377), (-0.020047646, -0.00175, -0.010214786), (-0.019184403, -0.00175, -0.011756218), (-0.018202882, -0.00175, -0.013225168), (-0.017109133, -0.00175, -0.014612581), (-0.015909903, -0.00175, -0.015909903), (-0.014612581, -0.00175, -0.017109133), (-0.013225168, -0.00175, -0.018202882), (-0.011756218, -0.00175, -0.019184403), (-0.010214786, -0.00175, -0.020047646), (-0.008610377, -0.00175, -0.02078729), (-0.0069528823, -0.00175, -0.021398772), (0.008497967, 0.00175, -0.026154054), (0.010523794, 0.00175, -0.025406687), (0.012484739, 0.00175, -0.02450268), (0.01436871, 0.00175, -0.023447605), (0.016164094, 0.00175, -0.022247968), (0.017859822, 0.00175, -0.020911165), (0.019445436, 0.00175, -0.019445436), (0.020911165, 0.00175, -0.017859822), (0.022247968, 0.00175, -0.016164094), (0.023447605, 0.00175, -0.01436871), (0.02450268, 0.00175, -0.012484739), (0.025406687, 0.00175, -0.010523794), (0.026154054, 0.00175, -0.008497967), (0.026740173, 0.00175, -0.0064197476), (0.027161429, 0.00175, -0.004301948), (0.027415227, 0.00175, -0.002157625), (0.0275, 0.00175, 0), (0.027415227, 0.00175, 0.002157625), (0.027161429, 0.00175, 0.004301948), (0.026740173, 0.00175, 0.0064197476), (0.026154054, 0.00175, 0.008497967), (0.025406687, 0.00175, 0.010523794), (0.02450268, 0.00175, 0.012484739), (0.023447605, 0.00175, 0.01436871), (0.022247968, 0.00175, 0.016164094), (0.020911165, 0.00175, 0.017859822), (0.019445436, 0.00175, 0.019445436), (0.017859822, 0.00175, 0.020911165), (0.016164094, 0.00175, 0.022247968), (0.01436871, 0.00175, 0.023447605), (0.012484739, 0.00175, 0.02450268), (0.010523794, 0.00175, 0.025406687), (0.008497967, 0.00175, 0.026154054), (0.0064197476, 0.00175, 0.026740173), (0.004301948, 0.00175, 0.027161429), (0.002157625, 0.00175, 0.027415227), (1.6838893e-18, 0.00175, 0.0275), (-0.002157625, 0.00175, 0.027415227), (-0.004301948, 0.00175, 0.027161429), (-0.0064197476, 0.00175, 0.026740173), (-0.008497967, 0.00175, 0.026154054), (-0.010523794, 0.00175, 0.025406687), (-0.012484739, 0.00175, 0.02450268), (-0.01436871, 0.00175, 0.023447605), (-0.016164094, 0.00175, 0.022247968), (-0.017859822, 0.00175, 0.020911165), (-0.019445436, 0.00175, 0.019445436), (-0.020911165, 0.00175, 0.017859822), (-0.022247968, 0.00175, 0.016164094), (-0.023447605, 0.00175, 0.01436871), (-0.02450268, 0.00175, 0.012484739), (-0.025406687, 0.00175, 0.010523794), (-0.026154054, 0.00175, 0.008497967), (-0.026740173, 0.00175, 0.0064197476), (-0.027161429, 0.00175, 0.004301948), (-0.027415227, 0.00175, 0.002157625), (-0.0275, 0.00175, 3.3677786e-18), (-0.027415227, 0.00175, -0.002157625), (-0.027161429, 0.00175, -0.004301948), (-0.026740173, 0.00175, -0.0064197476), (-0.026154054, 0.00175, -0.008497967), (-0.025406687, 0.00175, -0.010523794), (-0.02450268, 0.00175, -0.012484739), (-0.023447605, 0.00175, -0.01436871), (-0.022247968, 0.00175, -0.016164094), (-0.020911165, 0.00175, -0.017859822), (-0.019445436, 0.00175, -0.019445436), (-0.017859822, 0.00175, -0.020911165), (-0.016164094, 0.00175, -0.022247968), (-0.01436871, 0.00175, -0.023447605), (-0.012484739, 0.00175, -0.02450268), (-0.010523794, 0.00175, -0.025406687), (-0.008497967, 0.00175, -0.026154054), (0.0069528823, 0.00175, -0.021398772), (0.008610377, 0.00175, -0.02078729), (0.010214786, 0.00175, -0.020047646), (0.011756218, 0.00175, -0.019184403), (0.013225168, 0.00175, -0.018202882), (0.014612581, 0.00175, -0.017109133), (0.015909903, 0.00175, -0.015909903), (0.017109133, 0.00175, -0.014612581), (0.018202882, 0.00175, -0.013225168), (0.019184403, 0.00175, -0.011756218), (0.020047646, 0.00175, -0.010214786), (0.02078729, 0.00175, -0.008610377), (0.021398772, 0.00175, -0.0069528823), (0.021878323, 0.00175, -0.0052525206), (0.022222988, 0.00175, -0.0035197756), (0.02243064, 0.00175, -0.0017653296), (0.0225, 0.00175, 0), (0.02243064, 0.00175, 0.0017653296), (0.022222988, 0.00175, 0.0035197756), (0.021878323, 0.00175, 0.0052525206), (0.021398772, 0.00175, 0.0069528823), (0.02078729, 0.00175, 0.008610377), (0.020047646, 0.00175, 0.010214786), (0.019184403, 0.00175, 0.011756218), (0.018202882, 0.00175, 0.013225168), (0.017109133, 0.00175, 0.014612581), (0.015909903, 0.00175, 0.015909903), (0.014612581, 0.00175, 0.017109133), (0.013225168, 0.00175, 0.018202882), (0.011756218, 0.00175, 0.019184403), (0.010214786, 0.00175, 0.020047646), (0.008610377, 0.00175, 0.02078729), (0.0069528823, 0.00175, 0.021398772), (0.0052525206, 0.00175, 0.021878323), (0.0035197756, 0.00175, 0.022222988), (0.0017653296, 0.00175, 0.02243064), (1.3777276e-18, 0.00175, 0.0225), (-0.0017653296, 0.00175, 0.02243064), (-0.0035197756, 0.00175, 0.022222988), (-0.0052525206, 0.00175, 0.021878323), (-0.0069528823, 0.00175, 0.021398772), (-0.008610377, 0.00175, 0.02078729), (-0.010214786, 0.00175, 0.020047646), (-0.011756218, 0.00175, 0.019184403), (-0.013225168, 0.00175, 0.018202882), (-0.014612581, 0.00175, 0.017109133), (-0.015909903, 0.00175, 0.015909903), (-0.017109133, 0.00175, 0.014612581), (-0.018202882, 0.00175, 0.013225168), (-0.019184403, 0.00175, 0.011756218), (-0.020047646, 0.00175, 0.010214786), (-0.02078729, 0.00175, 0.008610377), (-0.021398772, 0.00175, 0.0069528823), (-0.021878323, 0.00175, 0.0052525206), (-0.022222988, 0.00175, 0.0035197756), (-0.02243064, 0.00175, 0.0017653296), (-0.0225, 0.00175, 2.7554553e-18), (-0.02243064, 0.00175, -0.0017653296), (-0.022222988, 0.00175, -0.0035197756), (-0.021878323, 0.00175, -0.0052525206), (-0.021398772, 0.00175, -0.0069528823), (-0.02078729, 0.00175, -0.008610377), (-0.020047646, 0.00175, -0.010214786), (-0.019184403, 0.00175, -0.011756218), (-0.018202882, 0.00175, -0.013225168), (-0.017109133, 0.00175, -0.014612581), (-0.015909903, 0.00175, -0.015909903), (-0.014612581, 0.00175, -0.017109133), (-0.013225168, 0.00175, -0.018202882), (-0.011756218, 0.00175, -0.019184403), (-0.010214786, 0.00175, -0.020047646), (-0.008610377, 0.00175, -0.02078729), (-0.0069528823, 0.00175, -0.021398772)]
            uniform token subdivisionScheme = "none"
            double3 xformOp:translate = (0, 0, 0)
            uniform token[] xformOpOrder = ["xformOp:translate"]
        }

        def Mesh "SupportRing" (
            prepend apiSchemas = ["MaterialBindingAPI"]
            customData = {
                dictionary magsafe = {
                    string class = "accessory_support_ring_visual"
                }
            }
        )
        {
            uniform bool doubleSided = 0
            float3[] extent = [(-0.024, -0.024, -0.0016), (0.024, 0.024, 0.0016)]
            int[] faceVertexCounts = [4, 4, 4, 4, 4, 4, 4, 4, 4, 4, 4, 4, 4, 4, 4, 4, 4, 4, 4, 4, 4, 4, 4, 4, 4, 4, 4, 4, 4, 4, 4, 4, 4, 4, 4, 4, 4, 4, 4, 4, 4, 4, 4, 4, 4, 4, 4, 4, 4, 4, 4, 4, 4, 4, 4, 4, 4, 4, 4, 4, 4, 4, 4, 4, 4, 4, 4, 4, 4, 4, 4, 4, 4, 4, 4, 4, 4, 4, 4, 4, 4, 4, 4, 4, 4, 4, 4, 4, 4, 4, 4, 4, 4, 4, 4, 4, 4, 4, 4, 4, 4, 4, 4, 4, 4, 4, 4, 4, 4, 4, 4, 4, 4, 4, 4, 4, 4, 4, 4, 4, 4, 4, 4, 4, 4, 4, 4, 4, 4, 4, 4, 4, 4, 4, 4, 4, 4, 4, 4, 4, 4, 4, 4, 4, 4, 4, 4, 4, 4, 4, 4, 4, 4, 4, 4, 4, 4, 4, 4, 4, 4, 4, 4, 4, 4, 4, 4, 4, 4, 4, 4, 4, 4, 4, 4, 4, 4, 4, 4, 4, 4, 4, 4, 4, 4, 4, 4, 4, 4, 4, 4, 4, 4, 4, 4, 4, 4, 4, 4, 4, 4, 4, 4, 4, 4, 4, 4, 4, 4, 4, 4, 4, 4, 4, 4, 4, 4, 4, 4, 4, 4, 4, 4, 4, 4, 4, 4, 4, 4, 4, 4, 4, 4, 4, 4, 4, 4, 4, 4, 4, 4, 4, 4, 4, 4, 4, 4, 4, 4, 4, 4, 4, 4, 4, 4, 4, 4, 4, 4, 4, 4, 4, 4, 4, 4, 4, 4, 4, 4, 4, 4, 4, 4, 4, 4, 4, 4, 4, 4, 4, 4, 4, 4, 4, 4, 4, 4, 4]
            int[] faceVertexIndices = [1, 0, 73, 74, 146, 147, 220, 219, 0, 1, 147, 146, 74, 73, 219, 220, 2, 1, 74, 75, 147, 148, 221, 220, 1, 2, 148, 147, 75, 74, 220, 221, 3, 2, 75, 76, 148, 149, 222, 221, 2, 3, 149, 148, 76, 75, 221, 222, 4, 3, 76, 77, 149, 150, 223, 222, 3, 4, 150, 149, 77, 76, 222, 223, 5, 4, 77, 78, 150, 151, 224, 223, 4, 5, 151, 150, 78, 77, 223, 224, 6, 5, 78, 79, 151, 152, 225, 224, 5, 6, 152, 151, 79, 78, 224, 225, 7, 6, 79, 80, 152, 153, 226, 225, 6, 7, 153, 152, 80, 79, 225, 226, 8, 7, 80, 81, 153, 154, 227, 226, 7, 8, 154, 153, 81, 80, 226, 227, 9, 8, 81, 82, 154, 155, 228, 227, 8, 9, 155, 154, 82, 81, 227, 228, 10, 9, 82, 83, 155, 156, 229, 228, 9, 10, 156, 155, 83, 82, 228, 229, 11, 10, 83, 84, 156, 157, 230, 229, 10, 11, 157, 156, 84, 83, 229, 230, 12, 11, 84, 85, 157, 158, 231, 230, 11, 12, 158, 157, 85, 84, 230, 231, 13, 12, 85, 86, 158, 159, 232, 231, 12, 13, 159, 158, 86, 85, 231, 232, 14, 13, 86, 87, 159, 160, 233, 232, 13, 14, 160, 159, 87, 86, 232, 233, 15, 14, 87, 88, 160, 161, 234, 233, 14, 15, 161, 160, 88, 87, 233, 234, 16, 15, 88, 89, 161, 162, 235, 234, 15, 16, 162, 161, 89, 88, 234, 235, 17, 16, 89, 90, 162, 163, 236, 235, 16, 17, 163, 162, 90, 89, 235, 236, 18, 17, 90, 91, 163, 164, 237, 236, 17, 18, 164, 163, 91, 90, 236, 237, 19, 18, 91, 92, 164, 165, 238, 237, 18, 19, 165, 164, 92, 91, 237, 238, 20, 19, 92, 93, 165, 166, 239, 238, 19, 20, 166, 165, 93, 92, 238, 239, 21, 20, 93, 94, 166, 167, 240, 239, 20, 21, 167, 166, 94, 93, 239, 240, 22, 21, 94, 95, 167, 168, 241, 240, 21, 22, 168, 167, 95, 94, 240, 241, 23, 22, 95, 96, 168, 169, 242, 241, 22, 23, 169, 168, 96, 95, 241, 242, 24, 23, 96, 97, 169, 170, 243, 242, 23, 24, 170, 169, 97, 96, 242, 243, 25, 24, 97, 98, 170, 171, 244, 243, 24, 25, 171, 170, 98, 97, 243, 244, 26, 25, 98, 99, 171, 172, 245, 244, 25, 26, 172, 171, 99, 98, 244, 245, 27, 26, 99, 100, 172, 173, 246, 245, 26, 27, 173, 172, 100, 99, 245, 246, 28, 27, 100, 101, 173, 174, 247, 246, 27, 28, 174, 173, 101, 100, 246, 247, 29, 28, 101, 102, 174, 175, 248, 247, 28, 29, 175, 174, 102, 101, 247, 248, 30, 29, 102, 103, 175, 176, 249, 248, 29, 30, 176, 175, 103, 102, 248, 249, 31, 30, 103, 104, 176, 177, 250, 249, 30, 31, 177, 176, 104, 103, 249, 250, 32, 31, 104, 105, 177, 178, 251, 250, 31, 32, 178, 177, 105, 104, 250, 251, 33, 32, 105, 106, 178, 179, 252, 251, 32, 33, 179, 178, 106, 105, 251, 252, 34, 33, 106, 107, 179, 180, 253, 252, 33, 34, 180, 179, 107, 106, 252, 253, 35, 34, 107, 108, 180, 181, 254, 253, 34, 35, 181, 180, 108, 107, 253, 254, 36, 35, 108, 109, 181, 182, 255, 254, 35, 36, 182, 181, 109, 108, 254, 255, 37, 36, 109, 110, 182, 183, 256, 255, 36, 37, 183, 182, 110, 109, 255, 256, 38, 37, 110, 111, 183, 184, 257, 256, 37, 38, 184, 183, 111, 110, 256, 257, 39, 38, 111, 112, 184, 185, 258, 257, 38, 39, 185, 184, 112, 111, 257, 258, 40, 39, 112, 113, 185, 186, 259, 258, 39, 40, 186, 185, 113, 112, 258, 259, 41, 40, 113, 114, 186, 187, 260, 259, 40, 41, 187, 186, 114, 113, 259, 260, 42, 41, 114, 115, 187, 188, 261, 260, 41, 42, 188, 187, 115, 114, 260, 261, 43, 42, 115, 116, 188, 189, 262, 261, 42, 43, 189, 188, 116, 115, 261, 262, 44, 43, 116, 117, 189, 190, 263, 262, 43, 44, 190, 189, 117, 116, 262, 263, 45, 44, 117, 118, 190, 191, 264, 263, 44, 45, 191, 190, 118, 117, 263, 264, 46, 45, 118, 119, 191, 192, 265, 264, 45, 46, 192, 191, 119, 118, 264, 265, 47, 46, 119, 120, 192, 193, 266, 265, 46, 47, 193, 192, 120, 119, 265, 266, 48, 47, 120, 121, 193, 194, 267, 266, 47, 48, 194, 193, 121, 120, 266, 267, 49, 48, 121, 122, 194, 195, 268, 267, 48, 49, 195, 194, 122, 121, 267, 268, 50, 49, 122, 123, 195, 196, 269, 268, 49, 50, 196, 195, 123, 122, 268, 269, 51, 50, 123, 124, 196, 197, 270, 269, 50, 51, 197, 196, 124, 123, 269, 270, 52, 51, 124, 125, 197, 198, 271, 270, 51, 52, 198, 197, 125, 124, 270, 271, 53, 52, 125, 126, 198, 199, 272, 271, 52, 53, 199, 198, 126, 125, 271, 272, 54, 53, 126, 127, 199, 200, 273, 272, 53, 54, 200, 199, 127, 126, 272, 273, 55, 54, 127, 128, 200, 201, 274, 273, 54, 55, 201, 200, 128, 127, 273, 274, 56, 55, 128, 129, 201, 202, 275, 274, 55, 56, 202, 201, 129, 128, 274, 275, 57, 56, 129, 130, 202, 203, 276, 275, 56, 57, 203, 202, 130, 129, 275, 276, 58, 57, 130, 131, 203, 204, 277, 276, 57, 58, 204, 203, 131, 130, 276, 277, 59, 58, 131, 132, 204, 205, 278, 277, 58, 59, 205, 204, 132, 131, 277, 278, 60, 59, 132, 133, 205, 206, 279, 278, 59, 60, 206, 205, 133, 132, 278, 279, 61, 60, 133, 134, 206, 207, 280, 279, 60, 61, 207, 206, 134, 133, 279, 280, 62, 61, 134, 135, 207, 208, 281, 280, 61, 62, 208, 207, 135, 134, 280, 281, 63, 62, 135, 136, 208, 209, 282, 281, 62, 63, 209, 208, 136, 135, 281, 282, 64, 63, 136, 137, 209, 210, 283, 282, 63, 64, 210, 209, 137, 136, 282, 283, 65, 64, 137, 138, 210, 211, 284, 283, 64, 65, 211, 210, 138, 137, 283, 284, 66, 65, 138, 139, 211, 212, 285, 284, 65, 66, 212, 211, 139, 138, 284, 285, 67, 66, 139, 140, 212, 213, 286, 285, 66, 67, 213, 212, 140, 139, 285, 286, 68, 67, 140, 141, 213, 214, 287, 286, 67, 68, 214, 213, 141, 140, 286, 287, 69, 68, 141, 142, 214, 215, 288, 287, 68, 69, 215, 214, 142, 141, 287, 288, 70, 69, 142, 143, 215, 216, 289, 288, 69, 70, 216, 215, 143, 142, 288, 289, 71, 70, 143, 144, 216, 217, 290, 289, 70, 71, 217, 216, 144, 143, 289, 290, 72, 71, 144, 145, 217, 218, 291, 290, 71, 72, 218, 217, 145, 144, 290, 291]
            rel material:binding = </MagSafeAccessory/Materials/BlackMetal>
            point3f[] points = [(0.024, 0, -0.0016), (0.023908673, 0.002091738, -0.0016), (0.023635386, 0.0041675563, -0.0016), (0.02318222, 0.006211657, -0.0016), (0.022552622, 0.008208483, -0.0016), (0.021751387, 0.010142839, -0.0016), (0.020784609, 0.012, -0.0016), (0.01965965, 0.013765834, -0.0016), (0.018385066, 0.015426903, -0.0016), (0.016970562, 0.016970562, -0.0016), (0.015426903, 0.018385066, -0.0016), (0.013765834, 0.01965965, -0.0016), (0.012, 0.020784609, -0.0016), (0.010142839, 0.021751387, -0.0016), (0.008208483, 0.022552622, -0.0016), (0.006211657, 0.02318222, -0.0016), (0.0041675563, 0.023635386, -0.0016), (0.002091738, 0.023908673, -0.0016), (1.4695761e-18, 0.024, -0.0016), (-0.002091738, 0.023908673, -0.0016), (-0.0041675563, 0.023635386, -0.0016), (-0.006211657, 0.02318222, -0.0016), (-0.008208483, 0.022552622, -0.0016), (-0.010142839, 0.021751387, -0.0016), (-0.012, 0.020784609, -0.0016), (-0.013765834, 0.01965965, -0.0016), (-0.015426903, 0.018385066, -0.0016), (-0.016970562, 0.016970562, -0.0016), (-0.018385066, 0.015426903, -0.0016), (-0.01965965, 0.013765834, -0.0016), (-0.020784609, 0.012, -0.0016), (-0.021751387, 0.010142839, -0.0016), (-0.022552622, 0.008208483, -0.0016), (-0.02318222, 0.006211657, -0.0016), (-0.023635386, 0.0041675563, -0.0016), (-0.023908673, 0.002091738, -0.0016), (-0.024, 2.9391522e-18, -0.0016), (-0.023908673, -0.002091738, -0.0016), (-0.023635386, -0.0041675563, -0.0016), (-0.02318222, -0.006211657, -0.0016), (-0.022552622, -0.008208483, -0.0016), (-0.021751387, -0.010142839, -0.0016), (-0.020784609, -0.012, -0.0016), (-0.01965965, -0.013765834, -0.0016), (-0.018385066, -0.015426903, -0.0016), (-0.016970562, -0.016970562, -0.0016), (-0.015426903, -0.018385066, -0.0016), (-0.013765834, -0.01965965, -0.0016), (-0.012, -0.020784609, -0.0016), (-0.010142839, -0.021751387, -0.0016), (-0.008208483, -0.022552622, -0.0016), (-0.006211657, -0.02318222, -0.0016), (-0.0041675563, -0.023635386, -0.0016), (-0.002091738, -0.023908673, -0.0016), (-4.4087283e-18, -0.024, -0.0016), (0.002091738, -0.023908673, -0.0016), (0.0041675563, -0.023635386, -0.0016), (0.006211657, -0.02318222, -0.0016), (0.008208483, -0.022552622, -0.0016), (0.010142839, -0.021751387, -0.0016), (0.012, -0.020784609, -0.0016), (0.013765834, -0.01965965, -0.0016), (0.015426903, -0.018385066, -0.0016), (0.016970562, -0.016970562, -0.0016), (0.018385066, -0.015426903, -0.0016), (0.01965965, -0.013765834, -0.0016), (0.020784609, -0.012, -0.0016), (0.021751387, -0.010142839, -0.0016), (0.022552622, -0.008208483, -0.0016), (0.02318222, -0.006211657, -0.0016), (0.023635386, -0.0041675563, -0.0016), (0.023908673, -0.002091738, -0.0016), (0.024, -5.8783044e-18, -0.0016), (0.019, 0, -0.0016), (0.018927699, 0.0016559591, -0.0016), (0.018711347, 0.0032993155, -0.0016), (0.01835259, 0.004917562, -0.0016), (0.01785416, 0.006498383, -0.0016), (0.017219847, 0.008029747, -0.0016), (0.016454482, 0.0095, -0.0016), (0.0155638885, 0.010897952, -0.0016), (0.014554844, 0.012212965, -0.0016), (0.0134350285, 0.0134350285, -0.0016), (0.012212965, 0.014554844, -0.0016), (0.010897952, 0.0155638885, -0.0016), (0.0095, 0.016454482, -0.0016), (0.008029747, 0.017219847, -0.0016), (0.006498383, 0.01785416, -0.0016), (0.004917562, 0.01835259, -0.0016), (0.0032993155, 0.018711347, -0.0016), (0.0016559591, 0.018927699, -0.0016), (1.1634144e-18, 0.019, -0.0016), (-0.0016559591, 0.018927699, -0.0016), (-0.0032993155, 0.018711347, -0.0016), (-0.004917562, 0.01835259, -0.0016), (-0.006498383, 0.01785416, -0.0016), (-0.008029747, 0.017219847, -0.0016), (-0.0095, 0.016454482, -0.0016), (-0.010897952, 0.0155638885, -0.0016), (-0.012212965, 0.014554844, -0.0016), (-0.0134350285, 0.0134350285, -0.0016), (-0.014554844, 0.012212965, -0.0016), (-0.0155638885, 0.010897952, -0.0016), (-0.016454482, 0.0095, -0.0016), (-0.017219847, 0.008029747, -0.0016), (-0.01785416, 0.006498383, -0.0016), (-0.01835259, 0.004917562, -0.0016), (-0.018711347, 0.0032993155, -0.0016), (-0.018927699, 0.0016559591, -0.0016), (-0.019, 2.3268289e-18, -0.0016), (-0.018927699, -0.0016559591, -0.0016), (-0.018711347, -0.0032993155, -0.0016), (-0.01835259, -0.004917562, -0.0016), (-0.01785416, -0.006498383, -0.0016), (-0.017219847, -0.008029747, -0.0016), (-0.016454482, -0.0095, -0.0016), (-0.0155638885, -0.010897952, -0.0016), (-0.014554844, -0.012212965, -0.0016), (-0.0134350285, -0.0134350285, -0.0016), (-0.012212965, -0.014554844, -0.0016), (-0.010897952, -0.0155638885, -0.0016), (-0.0095, -0.016454482, -0.0016), (-0.008029747, -0.017219847, -0.0016), (-0.006498383, -0.01785416, -0.0016), (-0.004917562, -0.01835259, -0.0016), (-0.0032993155, -0.018711347, -0.0016), (-0.0016559591, -0.018927699, -0.0016), (-3.4902435e-18, -0.019, -0.0016), (0.0016559591, -0.018927699, -0.0016), (0.0032993155, -0.018711347, -0.0016), (0.004917562, -0.01835259, -0.0016), (0.006498383, -0.01785416, -0.0016), (0.008029747, -0.017219847, -0.0016), (0.0095, -0.016454482, -0.0016), (0.010897952, -0.0155638885, -0.0016), (0.012212965, -0.014554844, -0.0016), (0.0134350285, -0.0134350285, -0.0016), (0.014554844, -0.012212965, -0.0016), (0.0155638885, -0.010897952, -0.0016), (0.016454482, -0.0095, -0.0016), (0.017219847, -0.008029747, -0.0016), (0.01785416, -0.006498383, -0.0016), (0.01835259, -0.004917562, -0.0016), (0.018711347, -0.0032993155, -0.0016), (0.018927699, -0.0016559591, -0.0016), (0.019, -4.6536577e-18, -0.0016), (0.024, 0, 0.0016), (0.023908673, 0.002091738, 0.0016), (0.023635386, 0.0041675563, 0.0016), (0.02318222, 0.006211657, 0.0016), (0.022552622, 0.008208483, 0.0016), (0.021751387, 0.010142839, 0.0016), (0.020784609, 0.012, 0.0016), (0.01965965, 0.013765834, 0.0016), (0.018385066, 0.015426903, 0.0016), (0.016970562, 0.016970562, 0.0016), (0.015426903, 0.018385066, 0.0016), (0.013765834, 0.01965965, 0.0016), (0.012, 0.020784609, 0.0016), (0.010142839, 0.021751387, 0.0016), (0.008208483, 0.022552622, 0.0016), (0.006211657, 0.02318222, 0.0016), (0.0041675563, 0.023635386, 0.0016), (0.002091738, 0.023908673, 0.0016), (1.4695761e-18, 0.024, 0.0016), (-0.002091738, 0.023908673, 0.0016), (-0.0041675563, 0.023635386, 0.0016), (-0.006211657, 0.02318222, 0.0016), (-0.008208483, 0.022552622, 0.0016), (-0.010142839, 0.021751387, 0.0016), (-0.012, 0.020784609, 0.0016), (-0.013765834, 0.01965965, 0.0016), (-0.015426903, 0.018385066, 0.0016), (-0.016970562, 0.016970562, 0.0016), (-0.018385066, 0.015426903, 0.0016), (-0.01965965, 0.013765834, 0.0016), (-0.020784609, 0.012, 0.0016), (-0.021751387, 0.010142839, 0.0016), (-0.022552622, 0.008208483, 0.0016), (-0.02318222, 0.006211657, 0.0016), (-0.023635386, 0.0041675563, 0.0016), (-0.023908673, 0.002091738, 0.0016), (-0.024, 2.9391522e-18, 0.0016), (-0.023908673, -0.002091738, 0.0016), (-0.023635386, -0.0041675563, 0.0016), (-0.02318222, -0.006211657, 0.0016), (-0.022552622, -0.008208483, 0.0016), (-0.021751387, -0.010142839, 0.0016), (-0.020784609, -0.012, 0.0016), (-0.01965965, -0.013765834, 0.0016), (-0.018385066, -0.015426903, 0.0016), (-0.016970562, -0.016970562, 0.0016), (-0.015426903, -0.018385066, 0.0016), (-0.013765834, -0.01965965, 0.0016), (-0.012, -0.020784609, 0.0016), (-0.010142839, -0.021751387, 0.0016), (-0.008208483, -0.022552622, 0.0016), (-0.006211657, -0.02318222, 0.0016), (-0.0041675563, -0.023635386, 0.0016), (-0.002091738, -0.023908673, 0.0016), (-4.4087283e-18, -0.024, 0.0016), (0.002091738, -0.023908673, 0.0016), (0.0041675563, -0.023635386, 0.0016), (0.006211657, -0.02318222, 0.0016), (0.008208483, -0.022552622, 0.0016), (0.010142839, -0.021751387, 0.0016), (0.012, -0.020784609, 0.0016), (0.013765834, -0.01965965, 0.0016), (0.015426903, -0.018385066, 0.0016), (0.016970562, -0.016970562, 0.0016), (0.018385066, -0.015426903, 0.0016), (0.01965965, -0.013765834, 0.0016), (0.020784609, -0.012, 0.0016), (0.021751387, -0.010142839, 0.0016), (0.022552622, -0.008208483, 0.0016), (0.02318222, -0.006211657, 0.0016), (0.023635386, -0.0041675563, 0.0016), (0.023908673, -0.002091738, 0.0016), (0.024, -5.8783044e-18, 0.0016), (0.019, 0, 0.0016), (0.018927699, 0.0016559591, 0.0016), (0.018711347, 0.0032993155, 0.0016), (0.01835259, 0.004917562, 0.0016), (0.01785416, 0.006498383, 0.0016), (0.017219847, 0.008029747, 0.0016), (0.016454482, 0.0095, 0.0016), (0.0155638885, 0.010897952, 0.0016), (0.014554844, 0.012212965, 0.0016), (0.0134350285, 0.0134350285, 0.0016), (0.012212965, 0.014554844, 0.0016), (0.010897952, 0.0155638885, 0.0016), (0.0095, 0.016454482, 0.0016), (0.008029747, 0.017219847, 0.0016), (0.006498383, 0.01785416, 0.0016), (0.004917562, 0.01835259, 0.0016), (0.0032993155, 0.018711347, 0.0016), (0.0016559591, 0.018927699, 0.0016), (1.1634144e-18, 0.019, 0.0016), (-0.0016559591, 0.018927699, 0.0016), (-0.0032993155, 0.018711347, 0.0016), (-0.004917562, 0.01835259, 0.0016), (-0.006498383, 0.01785416, 0.0016), (-0.008029747, 0.017219847, 0.0016), (-0.0095, 0.016454482, 0.0016), (-0.010897952, 0.0155638885, 0.0016), (-0.012212965, 0.014554844, 0.0016), (-0.0134350285, 0.0134350285, 0.0016), (-0.014554844, 0.012212965, 0.0016), (-0.0155638885, 0.010897952, 0.0016), (-0.016454482, 0.0095, 0.0016), (-0.017219847, 0.008029747, 0.0016), (-0.01785416, 0.006498383, 0.0016), (-0.01835259, 0.004917562, 0.0016), (-0.018711347, 0.0032993155, 0.0016), (-0.018927699, 0.0016559591, 0.0016), (-0.019, 2.3268289e-18, 0.0016), (-0.018927699, -0.0016559591, 0.0016), (-0.018711347, -0.0032993155, 0.0016), (-0.01835259, -0.004917562, 0.0016), (-0.01785416, -0.006498383, 0.0016), (-0.017219847, -0.008029747, 0.0016), (-0.016454482, -0.0095, 0.0016), (-0.0155638885, -0.010897952, 0.0016), (-0.014554844, -0.012212965, 0.0016), (-0.0134350285, -0.0134350285, 0.0016), (-0.012212965, -0.014554844, 0.0016), (-0.010897952, -0.0155638885, 0.0016), (-0.0095, -0.016454482, 0.0016), (-0.008029747, -0.017219847, 0.0016), (-0.006498383, -0.01785416, 0.0016), (-0.004917562, -0.01835259, 0.0016), (-0.0032993155, -0.018711347, 0.0016), (-0.0016559591, -0.018927699, 0.0016), (-3.4902435e-18, -0.019, 0.0016), (0.0016559591, -0.018927699, 0.0016), (0.0032993155, -0.018711347, 0.0016), (0.004917562, -0.01835259, 0.0016), (0.006498383, -0.01785416, 0.0016), (0.008029747, -0.017219847, 0.0016), (0.0095, -0.016454482, 0.0016), (0.010897952, -0.0155638885, 0.0016), (0.012212965, -0.014554844, 0.0016), (0.0134350285, -0.0134350285, 0.0016), (0.014554844, -0.012212965, 0.0016), (0.0155638885, -0.010897952, 0.0016), (0.016454482, -0.0095, 0.0016), (0.017219847, -0.008029747, 0.0016), (0.01785416, -0.006498383, 0.0016), (0.01835259, -0.004917562, 0.0016), (0.018711347, -0.0032993155, 0.0016), (0.018927699, -0.0016559591, 0.0016), (0.019, -4.6536577e-18, 0.0016)]
            uniform token subdivisionScheme = "none"
            double3 xformOp:translate = (0, 0.03, -0.0332)
            uniform token[] xformOpOrder = ["xformOp:translate"]
        }

        def Cylinder "Hinge" (
            prepend apiSchemas = ["MaterialBindingAPI"]
            customData = {
                dictionary magsafe = {
                    string class = "accessory_hinge_visual"
                }
            }
        )
        {
            uniform token axis = "X"
            double height = 0.011
            rel material:binding = </MagSafeAccessory/Materials/Hinge>
            double radius = 0.0032
            double3 xformOp:translate = (0, 0.0015, -0.024)
            uniform token[] xformOpOrder = ["xformOp:translate"]
        }
    }

    def "Colliders"
    {
        def "MainRing"
        {
            def Cube "Segment_00" (
                prepend apiSchemas = ["PhysicsCollisionAPI"]
                customData = {
                    dictionary magsafe = {
                        string class = "accessory_collision_proxy"
                    }
                }
            )
            {
                uniform token purpose = "guide"
                double size = 2
                token visibility = "invisible"
                quatf xformOp:orient = (0.872496, -0, -0.48862123, -0)
                float3 xformOp:scale = (0.0061863023, 0.00175, 0.0025)
                double3 xformOp:translate = (0.013062464117898723, 0, -0.021316004108852305)
                uniform token[] xformOpOrder = ["xformOp:translate", "xformOp:orient", "xformOp:scale"]
            }

            def Cube "Segment_01" (
                prepend apiSchemas = ["PhysicsCollisionAPI"]
                customData = {
                    dictionary magsafe = {
                        string class = "accessory_collision_proxy"
                    }
                }
            )
            {
                uniform token purpose = "guide"
                double size = 2
                token visibility = "invisible"
                quatf xformOp:orient = (0.9624552, -0, -0.27144045, -0)
                float3 xformOp:scale = (0.0061863023, 0.00175, 0.0025)
                double3 xformOp:translate = (0.021316004108852305, 0, -0.013062464117898721)
                uniform token[] xformOpOrder = ["xformOp:translate", "xformOp:orient", "xformOp:scale"]
            }

            def Cube "Segment_02" (
                prepend apiSchemas = ["PhysicsCollisionAPI"]
                customData = {
                    dictionary magsafe = {
                        string class = "accessory_collision_proxy"
                    }
                }
            )
            {
                uniform token purpose = "guide"
                double size = 2
                token visibility = "invisible"
                quatf xformOp:orient = (0.999229, -0, -0.039259817, -0)
                float3 xformOp:scale = (0.0061863023, 0.00175, 0.0025)
                double3 xformOp:translate = (0.0249229333433282, 0, -0.0019614773931961238)
                uniform token[] xformOpOrder = ["xformOp:translate", "xformOp:orient", "xformOp:scale"]
            }

            def Cube "Segment_03" (
                prepend apiSchemas = ["PhysicsCollisionAPI"]
                customData = {
                    dictionary magsafe = {
                        string class = "accessory_collision_proxy"
                    }
                }
            )
            {
                uniform token purpose = "guide"
                double size = 2
                token visibility = "invisible"
                quatf xformOp:orient = (0.98078525, 0, 0.19509032, 0)
                float3 xformOp:scale = (0.0061863023, 0.00175, 0.0025)
                double3 xformOp:translate = (0.02309698831278217, 0, 0.009567085809127246)
                uniform token[] xformOpOrder = ["xformOp:translate", "xformOp:orient", "xformOp:scale"]
            }

            def Cube "Segment_04" (
                prepend apiSchemas = ["PhysicsCollisionAPI"]
                customData = {
                    dictionary magsafe = {
                        string class = "accessory_collision_proxy"
                    }
                }
            )
            {
                uniform token purpose = "guide"
                double size = 2
                token visibility = "invisible"
                quatf xformOp:orient = (0.90814316, 0, 0.41865975, 0)
                float3 xformOp:scale = (0.0061863023, 0.00175, 0.0025)
                double3 xformOp:translate = (0.016236201208254593, 0, 0.019010149140000775)
                uniform token[] xformOpOrder = ["xformOp:translate", "xformOp:orient", "xformOp:scale"]
            }

            def Cube "Segment_05" (
                prepend apiSchemas = ["PhysicsCollisionAPI"]
                customData = {
                    dictionary magsafe = {
                        string class = "accessory_collision_proxy"
                    }
                }
            )
            {
                uniform token purpose = "guide"
                double size = 2
                token visibility = "invisible"
                quatf xformOp:orient = (0.78531694, 0, 0.61909395, 0)
                float3 xformOp:scale = (0.0061863023, 0.00175, 0.0025)
                double3 xformOp:translate = (0.005836134096397637, 0, 0.024309248009941914)
                uniform token[] xformOpOrder = ["xformOp:translate", "xformOp:orient", "xformOp:scale"]
            }

            def Cube "Segment_06" (
                prepend apiSchemas = ["PhysicsCollisionAPI"]
                customData = {
                    dictionary magsafe = {
                        string class = "accessory_collision_proxy"
                    }
                }
            )
            {
                uniform token purpose = "guide"
                double size = 2
                token visibility = "invisible"
                quatf xformOp:orient = (0.61909395, 0, 0.78531694, 0)
                float3 xformOp:scale = (0.0061863023, 0.00175, 0.0025)
                double3 xformOp:translate = (-0.0058361340963976336, 0, 0.024309248009941917)
                uniform token[] xformOpOrder = ["xformOp:translate", "xformOp:orient", "xformOp:scale"]
            }

            def Cube "Segment_07" (
                prepend apiSchemas = ["PhysicsCollisionAPI"]
                customData = {
                    dictionary magsafe = {
                        string class = "accessory_collision_proxy"
                    }
                }
            )
            {
                uniform token purpose = "guide"
                double size = 2
                token visibility = "invisible"
                quatf xformOp:orient = (0.41865975, 0, 0.90814316, 0)
                float3 xformOp:scale = (0.0061863023, 0.00175, 0.0025)
                double3 xformOp:translate = (-0.01623620120825459, 0, 0.01901014914000078)
                uniform token[] xformOpOrder = ["xformOp:translate", "xformOp:orient", "xformOp:scale"]
            }

            def Cube "Segment_08" (
                prepend apiSchemas = ["PhysicsCollisionAPI"]
                customData = {
                    dictionary magsafe = {
                        string class = "accessory_collision_proxy"
                    }
                }
            )
            {
                uniform token purpose = "guide"
                double size = 2
                token visibility = "invisible"
                quatf xformOp:orient = (0.19509032, 0, 0.98078525, 0)
                float3 xformOp:scale = (0.0061863023, 0.00175, 0.0025)
                double3 xformOp:translate = (-0.02309698831278217, 0, 0.009567085809127247)
                uniform token[] xformOpOrder = ["xformOp:translate", "xformOp:orient", "xformOp:scale"]
            }

            def Cube "Segment_09" (
                prepend apiSchemas = ["PhysicsCollisionAPI"]
                customData = {
                    dictionary magsafe = {
                        string class = "accessory_collision_proxy"
                    }
                }
            )
            {
                uniform token purpose = "guide"
                double size = 2
                token visibility = "invisible"
                quatf xformOp:orient = (-0.039259817, 0, 0.999229, 0)
                float3 xformOp:scale = (0.0061863023, 0.00175, 0.0025)
                double3 xformOp:translate = (-0.0249229333433282, 0, -0.0019614773931961207)
                uniform token[] xformOpOrder = ["xformOp:translate", "xformOp:orient", "xformOp:scale"]
            }

            def Cube "Segment_10" (
                prepend apiSchemas = ["PhysicsCollisionAPI"]
                customData = {
                    dictionary magsafe = {
                        string class = "accessory_collision_proxy"
                    }
                }
            )
            {
                uniform token purpose = "guide"
                double size = 2
                token visibility = "invisible"
                quatf xformOp:orient = (-0.27144045, 0, 0.9624552, 0)
                float3 xformOp:scale = (0.0061863023, 0.00175, 0.0025)
                double3 xformOp:translate = (-0.02131600410885231, 0, -0.013062464117898718)
                uniform token[] xformOpOrder = ["xformOp:translate", "xformOp:orient", "xformOp:scale"]
            }

            def Cube "Segment_11" (
                prepend apiSchemas = ["PhysicsCollisionAPI"]
                customData = {
                    dictionary magsafe = {
                        string class = "accessory_collision_proxy"
                    }
                }
            )
            {
                uniform token purpose = "guide"
                double size = 2
                token visibility = "invisible"
                quatf xformOp:orient = (-0.48862123, 0, 0.872496, 0)
                float3 xformOp:scale = (0.0061863023, 0.00175, 0.0025)
                double3 xformOp:translate = (-0.013062464117898714, 0, -0.021316004108852312)
                uniform token[] xformOpOrder = ["xformOp:translate", "xformOp:orient", "xformOp:scale"]
            }
        }

        def "SupportRing"
        {
            def Cube "Segment_00" (
                prepend apiSchemas = ["PhysicsCollisionAPI"]
                customData = {
                    dictionary magsafe = {
                        string class = "accessory_collision_proxy"
                    }
                }
            )
            {
                uniform token purpose = "guide"
                double size = 2
                token visibility = "invisible"
                quatf xformOp:orient = (0.9914449, 0, 0, 0.13052619)
                float3 xformOp:scale = (0.005898486, 0.0025, 0.0016)
                double3 xformOp:translate = (0.0055646094697041956, 0.009232594734785032, -0.0332)
                uniform token[] xformOpOrder = ["xformOp:translate", "xformOp:orient", "xformOp:scale"]
            }

            def Cube "Segment_01" (
                prepend apiSchemas = ["PhysicsCollisionAPI"]
                customData = {
                    dictionary magsafe = {
                        string class = "accessory_collision_proxy"
                    }
                }
            )
            {
                uniform token purpose = "guide"
                double size = 2
                token visibility = "invisible"
                quatf xformOp:orient = (0.9238795, 0, 0, 0.38268343)
                float3 xformOp:scale = (0.005898486, 0.0025, 0.0016)
                double3 xformOp:translate = (0.015202795795510772, 0.014797204204489229, -0.0332)
                uniform token[] xformOpOrder = ["xformOp:translate", "xformOp:orient", "xformOp:scale"]
            }

            def Cube "Segment_02" (
                prepend apiSchemas = ["PhysicsCollisionAPI"]
                customData = {
                    dictionary magsafe = {
                        string class = "accessory_collision_proxy"
                    }
                }
            )
            {
                uniform token purpose = "guide"
                double size = 2
                token visibility = "invisible"
                quatf xformOp:orient = (0.7933533, 0, 0, 0.6087614)
                float3 xformOp:scale = (0.005898486, 0.0025, 0.0016)
                double3 xformOp:translate = (0.020767405265214967, 0.0244353905302958, -0.0332)
                uniform token[] xformOpOrder = ["xformOp:translate", "xformOp:orient", "xformOp:scale"]
            }

            def Cube "Segment_03" (
                prepend apiSchemas = ["PhysicsCollisionAPI"]
                customData = {
                    dictionary magsafe = {
                        string class = "accessory_collision_proxy"
                    }
                }
            )
            {
                uniform token purpose = "guide"
                double size = 2
                token visibility = "invisible"
                quatf xformOp:orient = (0.6087614, 0, 0, 0.7933533)
                float3 xformOp:scale = (0.005898486, 0.0025, 0.0016)
                double3 xformOp:translate = (0.020767405265214967, 0.035564609469704196, -0.0332)
                uniform token[] xformOpOrder = ["xformOp:translate", "xformOp:orient", "xformOp:scale"]
            }

            def Cube "Segment_04" (
                prepend apiSchemas = ["PhysicsCollisionAPI"]
                customData = {
                    dictionary magsafe = {
                        string class = "accessory_collision_proxy"
                    }
                }
            )
            {
                uniform token purpose = "guide"
                double size = 2
                token visibility = "invisible"
                quatf xformOp:orient = (0.38268343, 0, 0, 0.9238795)
                float3 xformOp:scale = (0.005898486, 0.0025, 0.0016)
                double3 xformOp:translate = (0.015202795795510772, 0.04520279579551077, -0.0332)
                uniform token[] xformOpOrder = ["xformOp:translate", "xformOp:orient", "xformOp:scale"]
            }

            def Cube "Segment_05" (
                prepend apiSchemas = ["PhysicsCollisionAPI"]
                customData = {
                    dictionary magsafe = {
                        string class = "accessory_collision_proxy"
                    }
                }
            )
            {
                uniform token purpose = "guide"
                double size = 2
                token visibility = "invisible"
                quatf xformOp:orient = (0.13052619, 0, 0, 0.9914449)
                float3 xformOp:scale = (0.005898486, 0.0025, 0.0016)
                double3 xformOp:translate = (0.0055646094697041956, 0.05076740526521496, -0.0332)
                uniform token[] xformOpOrder = ["xformOp:translate", "xformOp:orient", "xformOp:scale"]
            }

            def Cube "Segment_06" (
                prepend apiSchemas = ["PhysicsCollisionAPI"]
                customData = {
                    dictionary magsafe = {
                        string class = "accessory_collision_proxy"
                    }
                }
            )
            {
                uniform token purpose = "guide"
                double size = 2
                token visibility = "invisible"
                quatf xformOp:orient = (-0.13052619, 0, 0, 0.9914449)
                float3 xformOp:scale = (0.005898486, 0.0025, 0.0016)
                double3 xformOp:translate = (-0.005564609469704198, 0.05076740526521496, -0.0332)
                uniform token[] xformOpOrder = ["xformOp:translate", "xformOp:orient", "xformOp:scale"]
            }

            def Cube "Segment_07" (
                prepend apiSchemas = ["PhysicsCollisionAPI"]
                customData = {
                    dictionary magsafe = {
                        string class = "accessory_collision_proxy"
                    }
                }
            )
            {
                uniform token purpose = "guide"
                double size = 2
                token visibility = "invisible"
                quatf xformOp:orient = (-0.38268343, 0, 0, 0.9238795)
                float3 xformOp:scale = (0.005898486, 0.0025, 0.0016)
                double3 xformOp:translate = (-0.01520279579551077, 0.04520279579551077, -0.0332)
                uniform token[] xformOpOrder = ["xformOp:translate", "xformOp:orient", "xformOp:scale"]
            }

            def Cube "Segment_08" (
                prepend apiSchemas = ["PhysicsCollisionAPI"]
                customData = {
                    dictionary magsafe = {
                        string class = "accessory_collision_proxy"
                    }
                }
            )
            {
                uniform token purpose = "guide"
                double size = 2
                token visibility = "invisible"
                quatf xformOp:orient = (-0.6087614, 0, 0, 0.7933533)
                float3 xformOp:scale = (0.005898486, 0.0025, 0.0016)
                double3 xformOp:translate = (-0.020767405265214964, 0.0355646094697042, -0.0332)
                uniform token[] xformOpOrder = ["xformOp:translate", "xformOp:orient", "xformOp:scale"]
            }

            def Cube "Segment_09" (
                prepend apiSchemas = ["PhysicsCollisionAPI"]
                customData = {
                    dictionary magsafe = {
                        string class = "accessory_collision_proxy"
                    }
                }
            )
            {
                uniform token purpose = "guide"
                double size = 2
                token visibility = "invisible"
                quatf xformOp:orient = (-0.7933533, 0, 0, 0.6087614)
                float3 xformOp:scale = (0.005898486, 0.0025, 0.0016)
                double3 xformOp:translate = (-0.020767405265214967, 0.0244353905302958, -0.0332)
                uniform token[] xformOpOrder = ["xformOp:translate", "xformOp:orient", "xformOp:scale"]
            }

            def Cube "Segment_10" (
                prepend apiSchemas = ["PhysicsCollisionAPI"]
                customData = {
                    dictionary magsafe = {
                        string class = "accessory_collision_proxy"
                    }
                }
            )
            {
                uniform token purpose = "guide"
                double size = 2
                token visibility = "invisible"
                quatf xformOp:orient = (-0.9238795, 0, 0, 0.38268343)
                float3 xformOp:scale = (0.005898486, 0.0025, 0.0016)
                double3 xformOp:translate = (-0.015202795795510773, 0.014797204204489229, -0.0332)
                uniform token[] xformOpOrder = ["xformOp:translate", "xformOp:orient", "xformOp:scale"]
            }

            def Cube "Segment_11" (
                prepend apiSchemas = ["PhysicsCollisionAPI"]
                customData = {
                    dictionary magsafe = {
                        string class = "accessory_collision_proxy"
                    }
                }
            )
            {
                uniform token purpose = "guide"
                double size = 2
                token visibility = "invisible"
                quatf xformOp:orient = (-0.9914449, 0, 0, 0.13052619)
                float3 xformOp:scale = (0.005898486, 0.0025, 0.0016)
                double3 xformOp:translate = (-0.005564609469704193, 0.009232594734785032, -0.0332)
                uniform token[] xformOpOrder = ["xformOp:translate", "xformOp:orient", "xformOp:scale"]
            }
        }
    }

    def "Frames"
    {
        def Xform "MagneticCenter" (
            customData = {
                dictionary magsafe = {
                    string class = "reference_frame"
                    string normal_axis = "-Y"
                }
            }
        )
        {
            double3 xformOp:translate = (0, -0.00175, 0)
            uniform token[] xformOpOrder = ["xformOp:translate"]
        }

        def Xform "GraspCenter" (
            customData = {
                dictionary magsafe = {
                    string class = "reference_frame"
                }
            }
        )
        {
            double3 xformOp:translate = (0, 0, 0)
            uniform token[] xformOpOrder = ["xformOp:translate"]
        }

        def Xform "Hinge" (
            customData = {
                dictionary magsafe = {
                    string class = "reference_frame"
                }
            }
        )
        {
            double3 xformOp:translate = (0, 0.0015, -0.024)
            uniform token[] xformOpOrder = ["xformOp:translate"]
        }
    }
}

