#usda 1.0
(
    defaultPrim = "MagSafeScene"
    metersPerUnit = 1
    upAxis = "Z"
)

def Xform "MagSafeScene" (
    customData = {
        dictionary magsafe = {
            int asset_version = 1
            string class = "magsafe_fixed_scene"
            bool fixed_layout = 1
            bool robot_included = 0
        }
    }
)
{
    def Xform "Table" (
        prepend references = @table_optical.usda@
    )
    {
        double3 xformOp:translate = (0, 0, 0)
        uniform token[] xformOpOrder = ["xformOp:translate"]
    }

    def Xform "Phone" (
        customData = {
            dictionary magsafe = {
                string screen_faces = "-Y"
            }
        }
        prepend references = @phone_landscape.usda@
    )
    {
        double3 xformOp:translate = (0.525, 0.07, 0.83075)
        uniform token[] xformOpOrder = ["xformOp:translate"]
    }

    def Xform "Accessory" (
        prepend references = @magsafe_poppinger_1062886.usda@
    )
    {
        double3 xformOp:translate = (0.525, 0.07642500000000002, 0.83075)
        uniform token[] xformOpOrder = ["xformOp:translate"]
    }

    def "Materials"
    {
        def Material "MountPlate"
        {
            token outputs:surface.connect = </MagSafeScene/Materials/MountPlate/PreviewSurface.outputs:surface>

            def Shader "PreviewSurface"
            {
                uniform token info:id = "UsdPreviewSurface"
                color3f inputs:diffuseColor = (0.035, 0.036, 0.04)
                color3f inputs:emissiveColor = (0, 0, 0)
                float inputs:metallic = 0.05
                float inputs:opacity = 1
                float inputs:roughness = 0.48
                token outputs:surface
            }
        }
    }

    def "ChargerMountPlate"
    {
        def Mesh "Visual" (
            prepend apiSchemas = ["MaterialBindingAPI"]
            customData = {
                dictionary magsafe = {
                    string class = "charger_mount_plate_visual"
                }
            }
        )
        {
            uniform bool doubleSided = 0
            float3[] extent = [(-0.12, -0.0525, -0.006), (0.12, 0.0525, 0.006)]
            int[] faceVertexCounts = [35, 35, 4, 4, 4, 4, 4, 4, 4, 4, 4, 4, 4, 4, 4, 4, 4, 4, 4, 4, 4, 4, 4, 4, 4, 4, 4, 4, 4, 4, 4, 4, 4, 4, 4, 4, 4]
            int[] faceVertexIndices = [34, 33, 32, 31, 30, 29, 28, 27, 26, 25, 24, 23, 22, 21, 20, 19, 18, 17, 16, 15, 14, 13, 12, 11, 10, 9, 8, 7, 6, 5, 4, 3, 2, 1, 0, 35, 36, 37, 38, 39, 40, 41, 42, 43, 44, 45, 46, 47, 48, 49, 50, 51, 52, 53, 54, 55, 56, 57, 58, 59, 60, 61, 62, 63, 64, 65, 66, 67, 68, 69, 0, 1, 36, 35, 1, 2, 37, 36, 2, 3, 38, 37, 3, 4, 39, 38, 4, 5, 40, 39, 5, 6, 41, 40, 6, 7, 42, 41, 7, 8, 43, 42, 8, 9, 44, 43, 9, 10, 45, 44, 10, 11, 46, 45, 11, 12, 47, 46, 12, 13, 48, 47, 13, 14, 49, 48, 14, 15, 50, 49, 15, 16, 51, 50, 16, 17, 52, 51, 17, 18, 53, 52, 18, 19, 54, 53, 19, 20, 55, 54, 20, 21, 56, 55, 21, 22, 57, 56, 22, 23, 58, 57, 23, 24, 59, 58, 24, 25, 60, 59, 25, 26, 61, 60, 26, 27, 62, 61, 27, 28, 63, 62, 28, 29, 64, 63, 29, 30, 65, 64, 30, 31, 66, 65, 31, 32, 67, 66, 32, 33, 68, 67, 33, 34, 69, 68, 34, 0, 35, 69]
            rel material:binding = </MagSafeScene/Materials/MountPlate>
            point3f[] points = [(0.12, -0.0525, 0), (0.119884714, -0.0525, 0.001170542), (0.11954328, -0.0525, 0.0022961006), (0.11898882, -0.0525, 0.0033334214), (0.118242644, -0.0525, 0.0042426405), (0.11733342, -0.0525, 0.0049888175), (0.1162961, -0.0525, 0.005543277), (0.11517054, -0.0525, 0.0058847116), (0.114, -0.0525, 0.006), (-0.114, -0.0525, 0.006), (-0.11517054, -0.0525, 0.0058847116), (-0.1162961, -0.0525, 0.005543277), (-0.11733342, -0.0525, 0.0049888175), (-0.118242644, -0.0525, 0.0042426405), (-0.11898882, -0.0525, 0.0033334214), (-0.11954328, -0.0525, 0.0022961006), (-0.119884714, -0.0525, 0.001170542), (-0.12, -0.0525, 7.3478805e-19), (-0.119884714, -0.0525, -0.001170542), (-0.11954328, -0.0525, -0.0022961006), (-0.11898882, -0.0525, -0.0033334214), (-0.118242644, -0.0525, -0.0042426405), (-0.11733342, -0.0525, -0.0049888175), (-0.1162961, -0.0525, -0.005543277), (-0.11517054, -0.0525, -0.0058847116), (-0.114, -0.0525, -0.006), (0.114, -0.0525, -0.006), (0.11517054, -0.0525, -0.0058847116), (0.1162961, -0.0525, -0.005543277), (0.11733342, -0.0525, -0.0049888175), (0.118242644, -0.0525, -0.0042426405), (0.11898882, -0.0525, -0.0033334214), (0.11954328, -0.0525, -0.0022961006), (0.119884714, -0.0525, -0.001170542), (0.12, -0.0525, -1.4695761e-18), (0.12, 0.0525, 0), (0.119884714, 0.0525, 0.001170542), (0.11954328, 0.0525, 0.0022961006), (0.11898882, 0.0525, 0.0033334214), (0.118242644, 0.0525, 0.0042426405), (0.11733342, 0.0525, 0.0049888175), (0.1162961, 0.0525, 0.005543277), (0.11517054, 0.0525, 0.0058847116), (0.114, 0.0525, 0.006), (-0.114, 0.0525, 0.006), (-0.11517054, 0.0525, 0.0058847116), (-0.1162961, 0.0525, 0.005543277), (-0.11733342, 0.0525, 0.0049888175), (-0.118242644, 0.0525, 0.0042426405), (-0.11898882, 0.0525, 0.0033334214), (-0.11954328, 0.0525, 0.0022961006), (-0.119884714, 0.0525, 0.001170542), (-0.12, 0.0525, 7.3478805e-19), (-0.119884714, 0.0525, -0.001170542), (-0.11954328, 0.0525, -0.0022961006), (-0.11898882, 0.0525, -0.0033334214), (-0.118242644, 0.0525, -0.0042426405), (-0.11733342, 0.0525, -0.0049888175), (-0.1162961, 0.0525, -0.005543277), (-0.11517054, 0.0525, -0.0058847116), (-0.114, 0.0525, -0.006), (0.114, 0.0525, -0.006), (0.11517054, 0.0525, -0.0058847116), (0.1162961, 0.0525, -0.005543277), (0.11733342, 0.0525, -0.0049888175), (0.118242644, 0.0525, -0.0042426405), (0.11898882, 0.0525, -0.0033334214), (0.11954328, 0.0525, -0.0022961006), (0.119884714, 0.0525, -0.001170542), (0.12, 0.0525, -1.4695761e-18)]
            uniform token subdivisionScheme = "none"
            double3 xformOp:translate = (0.42, 0.21, 0.801)
            uniform token[] xformOpOrder = ["xformOp:translate"]
        }

        def Mesh "Collider" (
            prepend apiSchemas = ["PhysicsCollisionAPI"]
            customData = {
                dictionary magsafe = {
                    string class = "charger_mount_plate_collider"
                }
            }
        )
        {
            uniform bool doubleSided = 0
            float3[] extent = [(-0.12, -0.0525, -0.006), (0.12, 0.0525, 0.006)]
            int[] faceVertexCounts = [35, 35, 4, 4, 4, 4, 4, 4, 4, 4, 4, 4, 4, 4, 4, 4, 4, 4, 4, 4, 4, 4, 4, 4, 4, 4, 4, 4, 4, 4, 4, 4, 4, 4, 4, 4, 4]
            int[] faceVertexIndices = [34, 33, 32, 31, 30, 29, 28, 27, 26, 25, 24, 23, 22, 21, 20, 19, 18, 17, 16, 15, 14, 13, 12, 11, 10, 9, 8, 7, 6, 5, 4, 3, 2, 1, 0, 35, 36, 37, 38, 39, 40, 41, 42, 43, 44, 45, 46, 47, 48, 49, 50, 51, 52, 53, 54, 55, 56, 57, 58, 59, 60, 61, 62, 63, 64, 65, 66, 67, 68, 69, 0, 1, 36, 35, 1, 2, 37, 36, 2, 3, 38, 37, 3, 4, 39, 38, 4, 5, 40, 39, 5, 6, 41, 40, 6, 7, 42, 41, 7, 8, 43, 42, 8, 9, 44, 43, 9, 10, 45, 44, 10, 11, 46, 45, 11, 12, 47, 46, 12, 13, 48, 47, 13, 14, 49, 48, 14, 15, 50, 49, 15, 16, 51, 50, 16, 17, 52, 51, 17, 18, 53, 52, 18, 19, 54, 53, 19, 20, 55, 54, 20, 21, 56, 55, 21, 22, 57, 56, 22, 23, 58, 57, 23, 24, 59, 58, 24, 25, 60, 59, 25, 26, 61, 60, 26, 27, 62, 61, 27, 28, 63, 62, 28, 29, 64, 63, 29, 30, 65, 64, 30, 31, 66, 65, 31, 32, 67, 66, 32, 33, 68, 67, 33, 34, 69, 68, 34, 0, 35, 69]
            point3f[] points = [(0.12, -0.0525, 0), (0.119884714, -0.0525, 0.001170542), (0.11954328, -0.0525, 0.0022961006), (0.11898882, -0.0525, 0.0033334214), (0.118242644, -0.0525, 0.0042426405), (0.11733342, -0.0525, 0.0049888175), (0.1162961, -0.0525, 0.005543277), (0.11517054, -0.0525, 0.0058847116), (0.114, -0.0525, 0.006), (-0.114, -0.0525, 0.006), (-0.11517054, -0.0525, 0.0058847116), (-0.1162961, -0.0525, 0.005543277), (-0.11733342, -0.0525, 0.0049888175), (-0.118242644, -0.0525, 0.0042426405), (-0.11898882, -0.0525, 0.0033334214), (-0.11954328, -0.0525, 0.0022961006), (-0.119884714, -0.0525, 0.001170542), (-0.12, -0.0525, 7.3478805e-19), (-0.119884714, -0.0525, -0.001170542), (-0.11954328, -0.0525, -0.0022961006), (-0.11898882, -0.0525, -0.0033334214), (-0.118242644, -0.0525, -0.0042426405), (-0.11733342, -0.0525, -0.0049888175), (-0.1162961, -0.0525, -0.005543277), (-0.11517054, -0.0525, -0.0058847116), (-0.114, -0.0525, -0.006), (0.114, -0.0525, -0.006), (0.11517054, -0.0525, -0.0058847116), (0.1162961, -0.0525, -0.005543277), (0.11733342, -0.0525, -0.0049888175), (0.118242644, -0.0525, -0.0042426405), (0.11898882, -0.0525, -0.0033334214), (0.11954328, -0.0525, -0.0022961006), (0.119884714, -0.0525, -0.001170542), (0.12, -0.0525, -1.4695761e-18), (0.12, 0.0525, 0), (0.119884714, 0.0525, 0.001170542), (0.11954328, 0.0525, 0.0022961006), (0.11898882, 0.0525, 0.0033334214), (0.118242644, 0.0525, 0.0042426405), (0.11733342, 0.0525, 0.0049888175), (0.1162961, 0.0525, 0.005543277), (0.11517054, 0.0525, 0.0058847116), (0.114, 0.0525, 0.006), (-0.114, 0.0525, 0.006), (-0.11517054, 0.0525, 0.0058847116), (-0.1162961, 0.0525, 0.005543277), (-0.11733342, 0.0525, 0.0049888175), (-0.118242644, 0.0525, 0.0042426405), (-0.11898882, 0.0525, 0.0033334214), (-0.11954328, 0.0525, 0.0022961006), (-0.119884714, 0.0525, 0.001170542), (-0.12, 0.0525, 7.3478805e-19), (-0.119884714, 0.0525, -0.001170542), (-0.11954328, 0.0525, -0.0022961006), (-0.11898882, 0.0525, -0.0033334214), (-0.118242644, 0.0525, -0.0042426405), (-0.11733342, 0.0525, -0.0049888175), (-0.1162961, 0.0525, -0.005543277), (-0.11517054, 0.0525, -0.0058847116), (-0.114, 0.0525, -0.006), (0.114, 0.0525, -0.006), (0.11517054, 0.0525, -0.0058847116), (0.1162961, 0.0525, -0.005543277), (0.11733342, 0.0525, -0.0049888175), (0.118242644, 0.0525, -0.0042426405), (0.11898882, 0.0525, -0.0033334214), (0.11954328, 0.0525, -0.0022961006), (0.119884714, 0.0525, -0.001170542), (0.12, 0.0525, -1.4695761e-18)]
            uniform token purpose = "guide"
            uniform token subdivisionScheme = "none"
            token visibility = "invisible"
            double3 xformOp:translate = (0.42, 0.21, 0.801)
            uniform token[] xformOpOrder = ["xformOp:translate"]
        }
    }

    def Xform "Charger" (
        prepend references = @charger_stand.usda@
    )
    {
        double3 xformOp:translate = (0.42, 0.21, 0.807)
        uniform token[] xformOpOrder = ["xformOp:translate"]
    }

    def "Frames"
    {
        def Xform "TableSurfaceOrigin" (
            customData = {
                dictionary magsafe = {
                    string class = "reference_frame"
                    string convention = "+X right, +Y back, +Z up"
                }
            }
        )
        {
            double3 xformOp:translate = (0, 0, 0.795)
            uniform token[] xformOpOrder = ["xformOp:translate"]
        }

        def Xform "PhoneInitialCenter" (
            customData = {
                dictionary magsafe = {
                    string class = "reference_frame"
                }
            }
        )
        {
            double3 xformOp:translate = (0.525, 0.07, 0.83075)
            uniform token[] xformOpOrder = ["xformOp:translate"]
        }

        def Xform "AccessoryInitialCenter" (
            customData = {
                dictionary magsafe = {
                    string class = "reference_frame"
                }
            }
        )
        {
            double3 xformOp:translate = (0.525, 0.07642500000000002, 0.83075)
            uniform token[] xformOpOrder = ["xformOp:translate"]
        }

        def Xform "ChargerBaseCenter" (
            customData = {
                dictionary magsafe = {
                    string class = "reference_frame"
                }
            }
        )
        {
            double3 xformOp:translate = (0.42, 0.21, 0.807)
            uniform token[] xformOpOrder = ["xformOp:translate"]
        }
    }
}

