#usda 1.0
(
    defaultPrim = "Phone"
    metersPerUnit = 1
    upAxis = "Z"
)

def Xform "Phone" (
    customData = {
        dictionary magsafe = {
            int asset_version = 1
            string class = "phone"
            bool dynamic_candidate = 1
            double mass_kg = 0.177
        }
    }
)
{
    def "Materials"
    {
        def Material "Body"
        {
            token outputs:surface.connect = </Phone/Materials/Body/PreviewSurface.outputs:surface>

            def Shader "PreviewSurface"
            {
                uniform token info:id = "UsdPreviewSurface"
                color3f inputs:diffuseColor = (0.43, 0.5, 0.3)
                color3f inputs:emissiveColor = (0, 0, 0)
                float inputs:metallic = 0.48
                float inputs:opacity = 1
                float inputs:roughness = 0.29
                token outputs:surface
            }
        }

        def Material "MetalEdge"
        {
            token outputs:surface.connect = </Phone/Materials/MetalEdge/PreviewSurface.outputs:surface>

            def Shader "PreviewSurface"
            {
                uniform token info:id = "UsdPreviewSurface"
                color3f inputs:diffuseColor = (0.58, 0.48, 0.33)
                color3f inputs:emissiveColor = (0, 0, 0)
                float inputs:metallic = 0.72
                float inputs:opacity = 1
                float inputs:roughness = 0.18
                token outputs:surface
            }
        }

        def Material "ScreenGlass"
        {
            token outputs:surface.connect = </Phone/Materials/ScreenGlass/PreviewSurface.outputs:surface>

            def Shader "PreviewSurface"
            {
                uniform token info:id = "UsdPreviewSurface"
                color3f inputs:diffuseColor = (0.008, 0.01, 0.013)
                color3f inputs:emissiveColor = (0, 0, 0)
                float inputs:metallic = 0.05
                float inputs:opacity = 1
                float inputs:roughness = 0.08
                token outputs:surface
            }
        }

        def Material "CameraLens"
        {
            token outputs:surface.connect = </Phone/Materials/CameraLens/PreviewSurface.outputs:surface>

            def Shader "PreviewSurface"
            {
                uniform token info:id = "UsdPreviewSurface"
                color3f inputs:diffuseColor = (0.004, 0.006, 0.008)
                color3f inputs:emissiveColor = (0, 0, 0)
                float inputs:metallic = 0.12
                float inputs:opacity = 1
                float inputs:roughness = 0.04
                token outputs:surface
            }
        }

        def Material "Flash"
        {
            token outputs:surface.connect = </Phone/Materials/Flash/PreviewSurface.outputs:surface>

            def Shader "PreviewSurface"
            {
                uniform token info:id = "UsdPreviewSurface"
                color3f inputs:diffuseColor = (0.92, 0.9, 0.77)
                color3f inputs:emissiveColor = (0, 0, 0)
                float inputs:metallic = 0
                float inputs:opacity = 1
                float inputs:roughness = 0.2
                token outputs:surface
            }
        }
    }

    def "Visuals"
    {
        def Mesh "MetalFrame" (
            prepend apiSchemas = ["MaterialBindingAPI"]
            customData = {
                dictionary magsafe = {
                    string class = "phone_frame_visual"
                }
            }
        )
        {
            uniform bool doubleSided = 0
            float3[] extent = [(-0.0748, -0.003975, -0.03575), (0.0748, 0.003975, 0.03575)]
            int[] faceVertexCounts = [36, 36, 4, 4, 4, 4, 4, 4, 4, 4, 4, 4, 4, 4, 4, 4, 4, 4, 4, 4, 4, 4, 4, 4, 4, 4, 4, 4, 4, 4, 4, 4, 4, 4, 4, 4, 4, 4]
            int[] faceVertexIndices = [35, 34, 33, 32, 31, 30, 29, 28, 27, 26, 25, 24, 23, 22, 21, 20, 19, 18, 17, 16, 15, 14, 13, 12, 11, 10, 9, 8, 7, 6, 5, 4, 3, 2, 1, 0, 36, 37, 38, 39, 40, 41, 42, 43, 44, 45, 46, 47, 48, 49, 50, 51, 52, 53, 54, 55, 56, 57, 58, 59, 60, 61, 62, 63, 64, 65, 66, 67, 68, 69, 70, 71, 0, 1, 37, 36, 1, 2, 38, 37, 2, 3, 39, 38, 3, 4, 40, 39, 4, 5, 41, 40, 5, 6, 42, 41, 6, 7, 43, 42, 7, 8, 44, 43, 8, 9, 45, 44, 9, 10, 46, 45, 10, 11, 47, 46, 11, 12, 48, 47, 12, 13, 49, 48, 13, 14, 50, 49, 14, 15, 51, 50, 15, 16, 52, 51, 16, 17, 53, 52, 17, 18, 54, 53, 18, 19, 55, 54, 19, 20, 56, 55, 20, 21, 57, 56, 21, 22, 58, 57, 22, 23, 59, 58, 23, 24, 60, 59, 24, 25, 61, 60, 25, 26, 62, 61, 26, 27, 63, 62, 27, 28, 64, 63, 28, 29, 65, 64, 29, 30, 66, 65, 30, 31, 67, 66, 31, 32, 68, 67, 32, 33, 69, 68, 33, 34, 70, 69, 34, 35, 71, 70, 35, 0, 36, 71]
            rel material:binding = </Phone/Materials/MetalEdge>
            point3f[] points = [(0.0748, -0.003975, 0.02525), (0.074598245, -0.003975, 0.027298449), (0.07400074, -0.003975, 0.029268175), (0.073030435, -0.003975, 0.031083487), (0.07172462, -0.003975, 0.03267462), (0.070133485, -0.003975, 0.03398043), (0.06831817, -0.003975, 0.034950737), (0.06634845, -0.003975, 0.035548244), (0.0643, -0.003975, 0.03575), (-0.0643, -0.003975, 0.03575), (-0.06634845, -0.003975, 0.035548244), (-0.06831817, -0.003975, 0.034950737), (-0.070133485, -0.003975, 0.03398043), (-0.07172462, -0.003975, 0.03267462), (-0.073030435, -0.003975, 0.031083487), (-0.07400074, -0.003975, 0.029268175), (-0.074598245, -0.003975, 0.027298449), (-0.0748, -0.003975, 0.02525), (-0.0748, -0.003975, -0.02525), (-0.074598245, -0.003975, -0.027298449), (-0.07400074, -0.003975, -0.029268175), (-0.073030435, -0.003975, -0.031083487), (-0.07172462, -0.003975, -0.03267462), (-0.070133485, -0.003975, -0.03398043), (-0.06831817, -0.003975, -0.034950737), (-0.06634845, -0.003975, -0.035548244), (-0.0643, -0.003975, -0.03575), (0.0643, -0.003975, -0.03575), (0.06634845, -0.003975, -0.035548244), (0.06831817, -0.003975, -0.034950737), (0.070133485, -0.003975, -0.03398043), (0.07172462, -0.003975, -0.03267462), (0.073030435, -0.003975, -0.031083487), (0.07400074, -0.003975, -0.029268175), (0.074598245, -0.003975, -0.027298449), (0.0748, -0.003975, -0.02525), (0.0748, 0.003975, 0.02525), (0.074598245, 0.003975, 0.027298449), (0.07400074, 0.003975, 0.029268175), (0.073030435, 0.003975, 0.031083487), (0.07172462, 0.003975, 0.03267462), (0.070133485, 0.003975, 0.03398043), (0.06831817, 0.003975, 0.034950737), (0.06634845, 0.003975, 0.035548244), (0.0643, 0.003975, 0.03575), (-0.0643, 0.003975, 0.03575), (-0.06634845, 0.003975, 0.035548244), (-0.06831817, 0.003975, 0.034950737), (-0.070133485, 0.003975, 0.03398043), (-0.07172462, 0.003975, 0.03267462), (-0.073030435, 0.003975, 0.031083487), (-0.07400074, 0.003975, 0.029268175), (-0.074598245, 0.003975, 0.027298449), (-0.0748, 0.003975, 0.02525), (-0.0748, 0.003975, -0.02525), (-0.074598245, 0.003975, -0.027298449), (-0.07400074, 0.003975, -0.029268175), (-0.073030435, 0.003975, -0.031083487), (-0.07172462, 0.003975, -0.03267462), (-0.070133485, 0.003975, -0.03398043), (-0.06831817, 0.003975, -0.034950737), (-0.06634845, 0.003975, -0.035548244), (-0.0643, 0.003975, -0.03575), (0.0643, 0.003975, -0.03575), (0.06634845, 0.003975, -0.035548244), (0.06831817, 0.003975, -0.034950737), (0.070133485, 0.003975, -0.03398043), (0.07172462, 0.003975, -0.03267462), (0.073030435, 0.003975, -0.031083487), (0.07400074, 0.003975, -0.029268175), (0.074598245, 0.003975, -0.027298449), (0.0748, 0.003975, -0.02525)]
            uniform token subdivisionScheme = "none"
            double3 xformOp:translate = (0, 0, 0)
            uniform token[] xformOpOrder = ["xformOp:translate"]
        }

        def Mesh "BodyInset" (
            prepend apiSchemas = ["MaterialBindingAPI"]
            customData = {
                dictionary magsafe = {
                    string class = "phone_body_visual"
                }
            }
        )
        {
            uniform bool doubleSided = 0
            float3[] extent = [(-0.0737, -0.004075, -0.03465), (0.0737, 0.004075, 0.03465)]
            int[] faceVertexCounts = [36, 36, 4, 4, 4, 4, 4, 4, 4, 4, 4, 4, 4, 4, 4, 4, 4, 4, 4, 4, 4, 4, 4, 4, 4, 4, 4, 4, 4, 4, 4, 4, 4, 4, 4, 4, 4, 4]
            int[] faceVertexIndices = [35, 34, 33, 32, 31, 30, 29, 28, 27, 26, 25, 24, 23, 22, 21, 20, 19, 18, 17, 16, 15, 14, 13, 12, 11, 10, 9, 8, 7, 6, 5, 4, 3, 2, 1, 0, 36, 37, 38, 39, 40, 41, 42, 43, 44, 45, 46, 47, 48, 49, 50, 51, 52, 53, 54, 55, 56, 57, 58, 59, 60, 61, 62, 63, 64, 65, 66, 67, 68, 69, 70, 71, 0, 1, 37, 36, 1, 2, 38, 37, 2, 3, 39, 38, 3, 4, 40, 39, 4, 5, 41, 40, 5, 6, 42, 41, 6, 7, 43, 42, 7, 8, 44, 43, 8, 9, 45, 44, 9, 10, 46, 45, 10, 11, 47, 46, 11, 12, 48, 47, 12, 13, 49, 48, 13, 14, 50, 49, 14, 15, 51, 50, 15, 16, 52, 51, 16, 17, 53, 52, 17, 18, 54, 53, 18, 19, 55, 54, 19, 20, 56, 55, 20, 21, 57, 56, 21, 22, 58, 57, 22, 23, 59, 58, 23, 24, 60, 59, 24, 25, 61, 60, 25, 26, 62, 61, 26, 27, 63, 62, 27, 28, 64, 63, 28, 29, 65, 64, 29, 30, 66, 65, 30, 31, 67, 66, 31, 32, 68, 67, 32, 33, 69, 68, 33, 34, 70, 69, 34, 35, 71, 70, 35, 0, 36, 71]
            rel material:binding = </Phone/Materials/Body>
            point3f[] points = [(0.0737, -0.004075, 0.02525), (0.07351938, -0.004075, 0.02708385), (0.072984464, -0.004075, 0.028847225), (0.072115816, -0.004075, 0.03047236), (0.070946805, -0.004075, 0.031896804), (0.06952236, -0.004075, 0.033065815), (0.06789722, -0.004075, 0.033934467), (0.06613385, -0.004075, 0.03446938), (0.0643, -0.004075, 0.03465), (-0.0643, -0.004075, 0.03465), (-0.06613385, -0.004075, 0.03446938), (-0.06789722, -0.004075, 0.033934467), (-0.06952236, -0.004075, 0.033065815), (-0.070946805, -0.004075, 0.031896804), (-0.072115816, -0.004075, 0.03047236), (-0.072984464, -0.004075, 0.028847225), (-0.07351938, -0.004075, 0.02708385), (-0.0737, -0.004075, 0.02525), (-0.0737, -0.004075, -0.02525), (-0.07351938, -0.004075, -0.02708385), (-0.072984464, -0.004075, -0.028847225), (-0.072115816, -0.004075, -0.03047236), (-0.070946805, -0.004075, -0.031896804), (-0.06952236, -0.004075, -0.033065815), (-0.06789722, -0.004075, -0.033934467), (-0.06613385, -0.004075, -0.03446938), (-0.0643, -0.004075, -0.03465), (0.0643, -0.004075, -0.03465), (0.06613385, -0.004075, -0.03446938), (0.06789722, -0.004075, -0.033934467), (0.06952236, -0.004075, -0.033065815), (0.070946805, -0.004075, -0.031896804), (0.072115816, -0.004075, -0.03047236), (0.072984464, -0.004075, -0.028847225), (0.07351938, -0.004075, -0.02708385), (0.0737, -0.004075, -0.02525), (0.0737, 0.004075, 0.02525), (0.07351938, 0.004075, 0.02708385), (0.072984464, 0.004075, 0.028847225), (0.072115816, 0.004075, 0.03047236), (0.070946805, 0.004075, 0.031896804), (0.06952236, 0.004075, 0.033065815), (0.06789722, 0.004075, 0.033934467), (0.06613385, 0.004075, 0.03446938), (0.0643, 0.004075, 0.03465), (-0.0643, 0.004075, 0.03465), (-0.06613385, 0.004075, 0.03446938), (-0.06789722, 0.004075, 0.033934467), (-0.06952236, 0.004075, 0.033065815), (-0.070946805, 0.004075, 0.031896804), (-0.072115816, 0.004075, 0.03047236), (-0.072984464, 0.004075, 0.028847225), (-0.07351938, 0.004075, 0.02708385), (-0.0737, 0.004075, 0.02525), (-0.0737, 0.004075, -0.02525), (-0.07351938, 0.004075, -0.02708385), (-0.072984464, 0.004075, -0.028847225), (-0.072115816, 0.004075, -0.03047236), (-0.070946805, 0.004075, -0.031896804), (-0.06952236, 0.004075, -0.033065815), (-0.06789722, 0.004075, -0.033934467), (-0.06613385, 0.004075, -0.03446938), (-0.0643, 0.004075, -0.03465), (0.0643, 0.004075, -0.03465), (0.06613385, 0.004075, -0.03446938), (0.06789722, 0.004075, -0.033934467), (0.06952236, 0.004075, -0.033065815), (0.070946805, 0.004075, -0.031896804), (0.072115816, 0.004075, -0.03047236), (0.072984464, 0.004075, -0.028847225), (0.07351938, 0.004075, -0.02708385), (0.0737, 0.004075, -0.02525)]
            uniform token subdivisionScheme = "none"
            double3 xformOp:translate = (0, 0, 0)
            uniform token[] xformOpOrder = ["xformOp:translate"]
        }

        def Mesh "Screen" (
            prepend apiSchemas = ["MaterialBindingAPI"]
            customData = {
                dictionary magsafe = {
                    string class = "phone_screen_visual"
                }
            }
        )
        {
            uniform bool doubleSided = 0
            float3[] extent = [(-0.0728, -0.000275, -0.03375), (0.0728, 0.000275, 0.03375)]
            int[] faceVertexCounts = [36, 36, 4, 4, 4, 4, 4, 4, 4, 4, 4, 4, 4, 4, 4, 4, 4, 4, 4, 4, 4, 4, 4, 4, 4, 4, 4, 4, 4, 4, 4, 4, 4, 4, 4, 4, 4, 4]
            int[] faceVertexIndices = [35, 34, 33, 32, 31, 30, 29, 28, 27, 26, 25, 24, 23, 22, 21, 20, 19, 18, 17, 16, 15, 14, 13, 12, 11, 10, 9, 8, 7, 6, 5, 4, 3, 2, 1, 0, 36, 37, 38, 39, 40, 41, 42, 43, 44, 45, 46, 47, 48, 49, 50, 51, 52, 53, 54, 55, 56, 57, 58, 59, 60, 61, 62, 63, 64, 65, 66, 67, 68, 69, 70, 71, 0, 1, 37, 36, 1, 2, 38, 37, 2, 3, 39, 38, 3, 4, 40, 39, 4, 5, 41, 40, 5, 6, 42, 41, 6, 7, 43, 42, 7, 8, 44, 43, 8, 9, 45, 44, 9, 10, 46, 45, 10, 11, 47, 46, 11, 12, 48, 47, 12, 13, 49, 48, 13, 14, 50, 49, 14, 15, 51, 50, 15, 16, 52, 51, 16, 17, 53, 52, 17, 18, 54, 53, 18, 19, 55, 54, 19, 20, 56, 55, 20, 21, 57, 56, 21, 22, 58, 57, 22, 23, 59, 58, 23, 24, 60, 59, 24, 25, 61, 60, 25, 26, 62, 61, 26, 27, 63, 62, 27, 28, 64, 63, 28, 29, 65, 64, 29, 30, 66, 65, 30, 31, 67, 66, 31, 32, 68, 67, 32, 33, 69, 68, 33, 34, 70, 69, 34, 35, 71, 70, 35, 0, 36, 71]
            rel material:binding = </Phone/Materials/ScreenGlass>
            point3f[] points = [(0.0728, -0.000275, 0.02525), (0.07263667, -0.000275, 0.026908267), (0.07215298, -0.000275, 0.028502809), (0.071367495, -0.000275, 0.029972346), (0.07031041, -0.000275, 0.03126041), (0.06902235, -0.000275, 0.032317493), (0.06755281, -0.000275, 0.033102974), (0.06595827, -0.000275, 0.033586673), (0.0643, -0.000275, 0.03375), (-0.0643, -0.000275, 0.03375), (-0.06595827, -0.000275, 0.033586673), (-0.06755281, -0.000275, 0.033102974), (-0.06902235, -0.000275, 0.032317493), (-0.07031041, -0.000275, 0.03126041), (-0.071367495, -0.000275, 0.029972346), (-0.07215298, -0.000275, 0.028502809), (-0.07263667, -0.000275, 0.026908267), (-0.0728, -0.000275, 0.02525), (-0.0728, -0.000275, -0.02525), (-0.07263667, -0.000275, -0.026908267), (-0.07215298, -0.000275, -0.028502809), (-0.071367495, -0.000275, -0.029972346), (-0.07031041, -0.000275, -0.03126041), (-0.06902235, -0.000275, -0.032317493), (-0.06755281, -0.000275, -0.033102974), (-0.06595827, -0.000275, -0.033586673), (-0.0643, -0.000275, -0.03375), (0.0643, -0.000275, -0.03375), (0.06595827, -0.000275, -0.033586673), (0.06755281, -0.000275, -0.033102974), (0.06902235, -0.000275, -0.032317493), (0.07031041, -0.000275, -0.03126041), (0.071367495, -0.000275, -0.029972346), (0.07215298, -0.000275, -0.028502809), (0.07263667, -0.000275, -0.026908267), (0.0728, -0.000275, -0.02525), (0.0728, 0.000275, 0.02525), (0.07263667, 0.000275, 0.026908267), (0.07215298, 0.000275, 0.028502809), (0.071367495, 0.000275, 0.029972346), (0.07031041, 0.000275, 0.03126041), (0.06902235, 0.000275, 0.032317493), (0.06755281, 0.000275, 0.033102974), (0.06595827, 0.000275, 0.033586673), (0.0643, 0.000275, 0.03375), (-0.0643, 0.000275, 0.03375), (-0.06595827, 0.000275, 0.033586673), (-0.06755281, 0.000275, 0.033102974), (-0.06902235, 0.000275, 0.032317493), (-0.07031041, 0.000275, 0.03126041), (-0.071367495, 0.000275, 0.029972346), (-0.07215298, 0.000275, 0.028502809), (-0.07263667, 0.000275, 0.026908267), (-0.0728, 0.000275, 0.02525), (-0.0728, 0.000275, -0.02525), (-0.07263667, 0.000275, -0.026908267), (-0.07215298, 0.000275, -0.028502809), (-0.071367495, 0.000275, -0.029972346), (-0.07031041, 0.000275, -0.03126041), (-0.06902235, 0.000275, -0.032317493), (-0.06755281, 0.000275, -0.033102974), (-0.06595827, 0.000275, -0.033586673), (-0.0643, 0.000275, -0.03375), (0.0643, 0.000275, -0.03375), (0.06595827, 0.000275, -0.033586673), (0.06755281, 0.000275, -0.033102974), (0.06902235, 0.000275, -0.032317493), (0.07031041, 0.000275, -0.03126041), (0.071367495, 0.000275, -0.029972346), (0.07215298, 0.000275, -0.028502809), (0.07263667, 0.000275, -0.026908267), (0.0728, 0.000275, -0.02525)]
            uniform token subdivisionScheme = "none"
            double3 xformOp:translate = (0, -0.004255, 0)
            uniform token[] xformOpOrder = ["xformOp:translate"]
        }

        def Cylinder "Camera_0" (
            prepend apiSchemas = ["MaterialBindingAPI"]
            customData = {
                dictionary magsafe = {
                    string class = "phone_camera_visual"
                }
            }
        )
        {
            uniform token axis = "Y"
            double height = 0.0022
            rel material:binding = </Phone/Materials/CameraLens>
            double radius = 0.0075
            double3 xformOp:translate = (0.0548, 0.0050750000000000005, 0.0155)
            uniform token[] xformOpOrder = ["xformOp:translate"]
        }

        def Cylinder "Camera_1" (
            prepend apiSchemas = ["MaterialBindingAPI"]
            customData = {
                dictionary magsafe = {
                    string class = "phone_camera_visual"
                }
            }
        )
        {
            uniform token axis = "Y"
            double height = 0.0022
            rel material:binding = </Phone/Materials/CameraLens>
            double radius = 0.0075
            double3 xformOp:translate = (0.0548, 0.0050750000000000005, -0.0155)
            uniform token[] xformOpOrder = ["xformOp:translate"]
        }

        def Cylinder "Flash" (
            prepend apiSchemas = ["MaterialBindingAPI"]
            customData = {
                dictionary magsafe = {
                    string class = "phone_flash_visual"
                }
            }
        )
        {
            uniform token axis = "Y"
            double height = 0.0014
            rel material:binding = </Phone/Materials/Flash>
            double radius = 0.0032
            double3 xformOp:translate = (0.0398, 0.004775000000000001, 0)
            uniform token[] xformOpOrder = ["xformOp:translate"]
        }
    }

    def "Colliders"
    {
        def Mesh "Main" (
            prepend apiSchemas = ["PhysicsCollisionAPI"]
            customData = {
                dictionary magsafe = {
                    string class = "phone_collider"
                }
            }
        )
        {
            uniform bool doubleSided = 0
            float3[] extent = [(-0.0748, -0.003975, -0.03575), (0.0748, 0.003975, 0.03575)]
            int[] faceVertexCounts = [36, 36, 4, 4, 4, 4, 4, 4, 4, 4, 4, 4, 4, 4, 4, 4, 4, 4, 4, 4, 4, 4, 4, 4, 4, 4, 4, 4, 4, 4, 4, 4, 4, 4, 4, 4, 4, 4]
            int[] faceVertexIndices = [35, 34, 33, 32, 31, 30, 29, 28, 27, 26, 25, 24, 23, 22, 21, 20, 19, 18, 17, 16, 15, 14, 13, 12, 11, 10, 9, 8, 7, 6, 5, 4, 3, 2, 1, 0, 36, 37, 38, 39, 40, 41, 42, 43, 44, 45, 46, 47, 48, 49, 50, 51, 52, 53, 54, 55, 56, 57, 58, 59, 60, 61, 62, 63, 64, 65, 66, 67, 68, 69, 70, 71, 0, 1, 37, 36, 1, 2, 38, 37, 2, 3, 39, 38, 3, 4, 40, 39, 4, 5, 41, 40, 5, 6, 42, 41, 6, 7, 43, 42, 7, 8, 44, 43, 8, 9, 45, 44, 9, 10, 46, 45, 10, 11, 47, 46, 11, 12, 48, 47, 12, 13, 49, 48, 13, 14, 50, 49, 14, 15, 51, 50, 15, 16, 52, 51, 16, 17, 53, 52, 17, 18, 54, 53, 18, 19, 55, 54, 19, 20, 56, 55, 20, 21, 57, 56, 21, 22, 58, 57, 22, 23, 59, 58, 23, 24, 60, 59, 24, 25, 61, 60, 25, 26, 62, 61, 26, 27, 63, 62, 27, 28, 64, 63, 28, 29, 65, 64, 29, 30, 66, 65, 30, 31, 67, 66, 31, 32, 68, 67, 32, 33, 69, 68, 33, 34, 70, 69, 34, 35, 71, 70, 35, 0, 36, 71]
            point3f[] points = [(0.0748, -0.003975, 0.02525), (0.074598245, -0.003975, 0.027298449), (0.07400074, -0.003975, 0.029268175), (0.073030435, -0.003975, 0.031083487), (0.07172462, -0.003975, 0.03267462), (0.070133485, -0.003975, 0.03398043), (0.06831817, -0.003975, 0.034950737), (0.06634845, -0.003975, 0.035548244), (0.0643, -0.003975, 0.03575), (-0.0643, -0.003975, 0.03575), (-0.06634845, -0.003975, 0.035548244), (-0.06831817, -0.003975, 0.034950737), (-0.070133485, -0.003975, 0.03398043), (-0.07172462, -0.003975, 0.03267462), (-0.073030435, -0.003975, 0.031083487), (-0.07400074, -0.003975, 0.029268175), (-0.074598245, -0.003975, 0.027298449), (-0.0748, -0.003975, 0.02525), (-0.0748, -0.003975, -0.02525), (-0.074598245, -0.003975, -0.027298449), (-0.07400074, -0.003975, -0.029268175), (-0.073030435, -0.003975, -0.031083487), (-0.07172462, -0.003975, -0.03267462), (-0.070133485, -0.003975, -0.03398043), (-0.06831817, -0.003975, -0.034950737), (-0.06634845, -0.003975, -0.035548244), (-0.0643, -0.003975, -0.03575), (0.0643, -0.003975, -0.03575), (0.06634845, -0.003975, -0.035548244), (0.06831817, -0.003975, -0.034950737), (0.070133485, -0.003975, -0.03398043), (0.07172462, -0.003975, -0.03267462), (0.073030435, -0.003975, -0.031083487), (0.07400074, -0.003975, -0.029268175), (0.074598245, -0.003975, -0.027298449), (0.0748, -0.003975, -0.02525), (0.0748, 0.003975, 0.02525), (0.074598245, 0.003975, 0.027298449), (0.07400074, 0.003975, 0.029268175), (0.073030435, 0.003975, 0.031083487), (0.07172462, 0.003975, 0.03267462), (0.070133485, 0.003975, 0.03398043), (0.06831817, 0.003975, 0.034950737), (0.06634845, 0.003975, 0.035548244), (0.0643, 0.003975, 0.03575), (-0.0643, 0.003975, 0.03575), (-0.06634845, 0.003975, 0.035548244), (-0.06831817, 0.003975, 0.034950737), (-0.070133485, 0.003975, 0.03398043), (-0.07172462, 0.003975, 0.03267462), (-0.073030435, 0.003975, 0.031083487), (-0.07400074, 0.003975, 0.029268175), (-0.074598245, 0.003975, 0.027298449), (-0.0748, 0.003975, 0.02525), (-0.0748, 0.003975, -0.02525), (-0.074598245, 0.003975, -0.027298449), (-0.07400074, 0.003975, -0.029268175), (-0.073030435, 0.003975, -0.031083487), (-0.07172462, 0.003975, -0.03267462), (-0.070133485, 0.003975, -0.03398043), (-0.06831817, 0.003975, -0.034950737), (-0.06634845, 0.003975, -0.035548244), (-0.0643, 0.003975, -0.03575), (0.0643, 0.003975, -0.03575), (0.06634845, 0.003975, -0.035548244), (0.06831817, 0.003975, -0.034950737), (0.070133485, 0.003975, -0.03398043), (0.07172462, 0.003975, -0.03267462), (0.073030435, 0.003975, -0.031083487), (0.07400074, 0.003975, -0.029268175), (0.074598245, 0.003975, -0.027298449), (0.0748, 0.003975, -0.02525)]
            uniform token purpose = "guide"
            uniform token subdivisionScheme = "none"
            token visibility = "invisible"
            double3 xformOp:translate = (0, 0, 0)
            uniform token[] xformOpOrder = ["xformOp:translate"]
        }
    }

    def "Frames"
    {
        def Xform "Center" (
            customData = {
                dictionary magsafe = {
                    string class = "reference_frame"
                }
            }
        )
        {
            double3 xformOp:translate = (0, 0, 0)
            uniform token[] xformOpOrder = ["xformOp:translate"]
        }

        def Xform "ScreenCenter" (
            customData = {
                dictionary magsafe = {
                    string class = "reference_frame"
                    string normal_axis = "-Y"
                }
            }
        )
        {
            double3 xformOp:translate = (0, -0.003975, 0)
            uniform token[] xformOpOrder = ["xformOp:translate"]
        }

        def Xform "BackCenter" (
            customData = {
                dictionary magsafe = {
                    string class = "reference_frame"
                    string normal_axis = "+Y"
                }
            }
        )
        {
            double3 xformOp:translate = (0, 0.003975, 0)
            uniform token[] xformOpOrder = ["xformOp:translate"]
        }

        def Xform "MagSafeCenter" (
            customData = {
                dictionary magsafe = {
                    string class = "reference_frame"
                    string normal_axis = "+Y"
                }
            }
        )
        {
            double3 xformOp:translate = (0, 0.004175, 0)
            uniform token[] xformOpOrder = ["xformOp:translate"]
        }

        def Xform "BottomEdgeCenter" (
            customData = {
                dictionary magsafe = {
                    string class = "reference_frame"
                }
            }
        )
        {
            double3 xformOp:translate = (0, 0, -0.03575)
            uniform token[] xformOpOrder = ["xformOp:translate"]
        }
    }
}

